<svg width="30" height="30" fill="none" xmlns="http://www.w3.org/2000/svg"><g id="Telegram" clip-path="url(#clip0_4_5872)"><path id="Vector" d="M30 15c0-8.284-6.716-15-15-15C6.716 0 0 6.716 0 15c0 8.284 6.716 15 15 15 8.284 0 15-6.716 15-15z" fill="#419FD9"/><path id="Vector_2" d="M30 15c0-8.284-6.716-15-15-15C6.716 0 0 6.716 0 15c0 8.284 6.716 15 15 15 8.284 0 15-6.716 15-15z" fill="url(#paint0_linear_4_5872)"/><path id="Vector_3" d="M6.742 14.67c4.362-1.941 7.27-3.22 8.726-3.838 4.156-1.765 5.02-2.072 5.582-2.082.124-.002.4.03.58.178a.648.648 0 01.213.414c.02.118.044.39.025.601-.225 2.416-1.2 8.278-1.695 10.984-.21 1.145-.623 1.529-1.023 1.566-.869.082-1.529-.586-2.37-1.15-1.317-.88-2.061-1.43-3.34-2.29-1.477-.994-.52-1.54.323-2.433.22-.233 4.048-3.79 4.123-4.112.009-.04.017-.19-.07-.27-.088-.08-.217-.052-.31-.03-.132.03-2.236 1.45-6.311 4.259-.598.419-1.139.623-1.623.612-.534-.012-1.562-.308-2.326-.562-.937-.311-1.682-.475-1.617-1.004.034-.275.405-.556 1.113-.844z" fill="#fff"/></g><defs><linearGradient id="paint0_linear_4_5872" x1="15" y1="0" x2="15" y2="29.777" gradientUnits="userSpaceOnUse"><stop stop-color="#2AABEE"/><stop offset="1" stop-color="#229ED9"/></linearGradient><clipPath id="clip0_4_5872"><path fill="#fff" d="M0 0h30v30H0z"/></clipPath></defs></svg>