<svg width="30" height="30" fill="none" xmlns="http://www.w3.org/2000/svg"><rect width="30" height="30" rx="15" fill="#1E88E5"/><g clip-path="url(#clip0_4_5880)"><path d="M14.828 20.026h.956s.29-.032.436-.19c.136-.147.131-.42.131-.42s-.019-1.284.577-1.473c.587-.186 1.341 1.24 2.14 1.79.604.414 1.063.323 1.063.323l2.137-.03s1.118-.069.588-.948c-.043-.072-.309-.65-1.589-1.838-1.34-1.244-1.16-1.042.454-3.193.983-1.31 1.376-2.11 1.253-2.452-.117-.326-.84-.24-.84-.24l-2.404.014s-.178-.024-.31.055a.677.677 0 00-.213.258s-.38 1.014-.889 1.876c-1.07 1.82-1.5 1.915-1.675 1.802-.407-.263-.305-1.058-.305-1.622 0-1.763.267-2.498-.52-2.688-.263-.063-.455-.105-1.124-.112-.858-.009-1.585.003-1.996.204-.274.134-.485.433-.356.45.16.021.52.097.71.357.247.335.238 1.09.238 1.09s.142 2.074-.33 2.332c-.326.177-.77-.184-1.726-1.835a15.39 15.39 0 01-.859-1.78s-.07-.174-.198-.267c-.154-.113-.37-.149-.37-.149l-2.286.014s-.343.01-.469.16c-.112.132-.009.406-.009.406s1.79 4.187 3.816 6.298c1.86 1.935 3.97 1.808 3.97 1.808z" fill="#fff"/></g><defs><clipPath id="clip0_4_5880"><path fill="#fff" transform="translate(7 11)" d="M0 0h16v9H0z"/></clipPath></defs></svg>