<svg width="30" height="30" fill="none" xmlns="http://www.w3.org/2000/svg"><g id="Youtube" clip-path="url(#clip0_4_5878)"><path id="Vector" d="M17.405 14.75l-3.37-1.572c-.293-.137-.535.016-.535.342v2.96c0 .326.242.48.536.343l3.367-1.572c.296-.138.296-.363.002-.501zM15 .6C7.047.6.6 7.047.6 15S7.047 29.4 15 29.4 29.4 22.953 29.4 15 22.953.6 15 .6zm0 20.25c-7.37 0-7.5-.664-7.5-5.85 0-5.185.13-5.85 7.5-5.85 7.371 0 7.5.665 7.5 5.85 0 5.186-.129 5.85-7.5 5.85z" fill="#DE3131"/></g><defs><clipPath id="clip0_4_5878"><path fill="#fff" d="M0 0h30v30H0z"/></clipPath></defs></svg>