<svg width="84" height="84" fill="none" xmlns="http://www.w3.org/2000/svg"><path d="M77.432 67.205c.316-.723.568-1.488.806-2.217.137-.368.6-1.239.258-1.04a4.392 4.392 0 00-1.559 1.683c-.397.094-.721.3-.972.617-.249.3-.468.62-.655.962a5.52 5.52 0 01-.72.875c-.152.155-.316.31-.486.462a4.656 4.656 0 01-.55.413c-.34.245-.698.462-1.075.649a2.207 2.207 0 01-.75.205 62.415 62.415 0 003.03-3.116c.493.01.627-.535.86-.905.243-.365.522-.7.836-1.008a2.87 2.87 0 00.376-.495.91.91 0 00.124-.521c-.026-.285.017-.56.13-.825.034-.068.066-.14.093-.211.121-.238.256-.468.406-.689.212-.419.386-.852.523-1.3a1.55 1.55 0 00-.255.15c-.126.102-.25.232-.376.348.03-.164.06-.331.08-.487.008-.088.011-.177.008-.265a.125.125 0 00.062-.023c.184-.139.359-.288.522-.45a3.9 3.9 0 00.42-.541 3.08 3.08 0 00.488-1.354c.037-.527.153-.618.512-.519a1.01 1.01 0 01.264-1.08c.11-.17.175-.354.193-.553.007-.162-.086-.26-.142-.375a5.725 5.725 0 00-.293.508 35.83 35.83 0 01-.858 1.742c.053-.179.136-.344.25-.493.128-.446.263-.954.387-1.464-.575.516-.861 1.45-1.28 2.246-.542 1.013.285.09.168.496a.251.251 0 00.058-.028c-.204.36-.41.723-.603 1.074-.122.251-.22.51-.288.78 0 0 .043.026.095.032a2.298 2.298 0 01-.247.285c-.186.17-.337.367-.45.59-.063.098-.118.217-.163.313l-.031.013c.04-.088.084-.177.126-.266.103-.226.273-.744.027-.427l-.675.878c-.222.288-.484.57-.713.851a.341.341 0 01.046-.139c.628-1 1.233-2.021 1.79-3.063l.176-.384.135-.244c.358-.7.657-1.429.967-2.15.154-.336.281-.693.41-1.027l.39-1.035.344-1.046c.115-.35.233-.698.324-1.052.114-.309.115-.507-.06-.549a2.08 2.08 0 01.377-1.069 7.37 7.37 0 00.088-.139 35.091 35.091 0 01-.313 1.51c-.08.36-.085.604.086.593.087-.005.246.002.261-.043.653-2.12 1.245-4.36 1.296-6.512.003-.844-.041-1.245-.04-1.502a.868.868 0 01.194-.637.435.435 0 00.06-.17c.125-1.784.208-3.597-.183-5.374-.05-.318-.116-.645-.18-.973a23.815 23.815 0 00-.03-1.016c-.017-.34-.07-.675-.116-1.014a18.391 18.391 0 00-.656-3.012c-.1-.337-.185-.665-.308-.986-.233-.65-.454-1.305-.728-1.94l-.036-.131c-.234-.718-.524-1.43-.797-2.143-.144-.354-.307-.7-.457-1.051l-.232-.525-.26-.52a7.569 7.569 0 00-.527-.97c-.206-.3-.43-.588-.646-.877l-.649-.874a6.331 6.331 0 01-.57-.955l-.515-.76-.136-.226-.276-.363-.274-.347-.585-.7c-.39-.467-.81-.909-1.202-1.375a39.06 39.06 0 00-5.758-5.28c.132.314.181.551.092.66.09-.109.04-.346-.092-.66l-.459-.357c-.155-.118-.315-.226-.474-.342a30.64 30.64 0 00-.96-.66c-2.054-1.287-4.204-2.583-6.556-3.172-.493-.44-1.195-.641-1.9-.8l-1.533-.517c-.154-.047-.314-.078-.472-.116l-1.432-.378c-.693-.178-1.388-.36-2.088-.522l-1.197-.399.403.001c.371.062.743.117 1.114.19l1.107.238c.74.14 1.46.358 2.193.514a36.323 36.323 0 016.069 2.051c2.28 1.028 4.54 2.215 6.56 3.757.35.282.743.527 1.117.807.375.278.768.545 1.15.81.717.509 1.379 1.08 1.984 1.712 1.19 1.31 1.998 2.046 3.089 2.79.04.039.079.083.117.126.201.294.396.614.595.916.098.151.2.296.31.437.093.135.193.262.301.384a.989.989 0 00.477.33.964.964 0 00.583-.002c.177-.028.35-.018.521.028.195.046.392.114.582.16.065.095.122.195.172.3-.18.152-.31.419-.589.377-.278-.04-.378-.105-.024.4l-.362.152c.237.284.49.619.7.852.335.353.68.492 1 1.123.983 1.95 2.025 3.816 2.99 5.566.143.236.326.879.58 1.294.254.416.537.613.874-.077-.047.4-.089.668-.125.87l-.082.471c.152.283.275.576.368.882.103.304.218.524.376.334a.643.643 0 00.117-.41 2.448 2.448 0 00-.091-.555c-.11-.4-.278-.845-.406-1.218-.48-1.367-1.07-2.677-1.663-3.988a40.374 40.374 0 00-6.852-10.732c-.223-.26-.46-.508-.699-.75l-.71-.736c-.488-.48-.993-.947-1.494-1.414l-1.14-1.11a19.435 19.435 0 00-.713-.585c-2.056-1.6-4.214-3.216-6.63-4.13-.19-.137-.37-.281-.56-.414a12.66 12.66 0 00-.596-.383 6.446 6.446 0 00-.629-.35 3.885 3.885 0 00-.702-.28l-.977-.364c-.323-.119-.646-.248-.979-.346-.814-.33-1.65-.634-2.48-.907a9.58 9.58 0 00-.731-.387l-.451-.213-.509-.201a41.46 41.46 0 00-1.113-.41 11.779 11.779 0 00-.487-.154c.395.084.789.173 1.183.273l1.04.054-1.04-.054 1.121.274 1.105.326.27.078c.704.28 1.254.362 1.524.206.195-.11-.177-.374-.648-.585l-.42-.194c.17.005.341.008.509.02l.506.036c.492.042 1.47.246 1.17-.065a4.396 4.396 0 00-1.11-.814 6.421 6.421 0 00-1.696-.56l-.635-.21-.65-.172-1.294-.357c-.43-.117-.869-.204-1.305-.307-.436-.103-.861-.208-1.312-.282-.878-.153-1.752-.33-2.641-.426-.442-.055-.882-.117-1.327-.164L46.403.118l-.67-.051-.67-.026-1.34-.04c-.446-.006-.886.015-1.34.016-.455.002-.885.01-1.346.05-.614.047-1.246.067-1.866.118l-1.862.192-.024.011-.84.089c-1.979.283-3.93.7-5.85 1.249l-.303.105-1.046.347c-.36.107-.685.259-1.032.386l-1.173.44-1.16.496c-.784.316-1.527.705-2.286 1.068-.38.178-.743.39-1.114.589l-1.11.611-1.068.664c-.358.222-.722.427-1.066.674-.515.355-1.31.644-1.293 1.127-.34.26-.721.464-1.081.698a2.88 2.88 0 00-.944.867c-.474.288-.953.553-1.421.866-.487.35-.91.767-1.263 1.249-.352.272-.69.561-1.01.869a23.79 23.79 0 00-.939.913c-.302.315-.58.657-.856.996-.285.334-.55.683-.792 1.048l-.654.81c-.22.27-.438.54-.638.821-.406.563-.835 1.112-1.217 1.688l-.222.606.404-.28.016-.024c.033.133.074.254.102.396-.028-.142-.069-.263-.102-.396l-.016.024-.404.28-.684.96c-.271.432-.522.875-.782 1.313l-.39.662-.36.688-.707 1.355-.64 1.39a4.933 4.933 0 00-.284.69 7.751 7.751 0 00-.16.66c-.083.43-.134.842-.216 1.276-.182.347-.339.704-.508 1.057-.233-.095-.364.354-.481.815-.117.462-.185 1.026-.277 1.533-.078.482-.181.96-.313 1.43-.165.53-.31 1.068-.423 1.608-.115.54-.183 1.09-.26 1.632l-.06.408-.04.41-.081.814-.089.81-.08.813a17.68 17.68 0 00.001 2.211c.016.367.027.736.024 1.11-.005.375.008.753-.023 1.138-.03.383-.077.785-.074 1.195-.002.409.076.805.23 1.184l.048-.164-.008.012.13.349.044.663.073.662.148 1.322.21 1.315c.07.439.14.879.24 1.312-.002.367.106.701.323 1 .09.155.162.317.217.489.069.204.09.414.066.627-.037.49.018.97.162 1.44.173.507.395.993.666 1.456.348 1.414.784 2.831 1.682 2.96l.14.29c.08.414-.104.512.156 1.193.746 1.923 1.854 3.616 3.045 5.253l.304.449.03-.076.19.285c.18.397.346.814.534 1.215a50.672 50.672 0 009.795 9.447.91.91 0 00.505.594c.125.075.263.139.404.204.14.064.282.118.414.184.51.29.996.614 1.457.975.49.32.965.584 1.402.562a3.15 3.15 0 011.082.17c.435.146.857.323 1.264.534.554.283 1.192.381 1.786.557a2.297 2.297 0 00-.259-.263c-.165-.128-.363-.254-.549-.384.217.028.442.06.647.078.15.01.278 0 .414.003a5.276 5.276 0 01-.508-.308c-.504-.363-1.22-.62-1.899-.896-.678-.275-1.288-.628-1.529-1.162.215-.003.426.028.631.094l.53.27.543.244 1.085.496c.358.174.733.309 1.1.46l1.105.445c.179.064.363.116.543.173l.35.134c.506.16 1.002.342 1.514.482l1.531.418c.48.133.97.23 1.454.345l.733.156c.244.05.488.09.735.135.489.083.976.177 1.468.253l1.476.187c.437.088.715.06.706-.123a3.492 3.492 0 011.524.218 4.908 4.908 0 001.588.269 71.238 71.238 0 003.609-.157h.196l-.005-.017.005.017 1.034-.036c.713.005 1.422-.055 2.124-.178a20.816 20.816 0 012.156-.228 8.304 8.304 0 001.525-.186c.513-.104 1.035-.206 1.54-.329l.801-.09c.377-.102.758-.2 1.13-.322.61-.132 1.226-.246 1.833-.395l1.61-.615a11.89 11.89 0 001.76-.66c.56-.26 1.097-.552 1.653-.772.383-.143.75-.316 1.122-.472.371-.158.74-.329 1.105-.502.364-.175.716-.382 1.062-.585a9.415 9.415 0 001.015-.658c.707-.464 1.412-.922 2.086-1.432.338-.254.683-.493 1.01-.756l.979-.796c.153-.133.307-.26.455-.395l.44-.415.175-.163c.343-.324.706-.628 1.035-.97.329-.341.662-.672.977-1.017.777-.89 1.443-1.835 2.183-2.743.505-.571 1.091-1.114 1.145-1.752zm.547-45.051l-.416-.431.369.223.047.208zm-5.942 51.065c.023-.037.034-.082.054-.122-.022.047-.045.085-.058.13l.004-.008zM55.822 3.206zm5.38 11.184l.272.149-.272-.149zm-4.237.523l-.364-.147.364.147zm-1.457-.75l-.18-.049.18.049c.106-.132.277-.12.468-.051-.191-.069-.362-.08-.468.05zm.357 2.23a3.775 3.775 0 00-.287-.093 1.05 1.05 0 00-.543-.027c-.15-.04-.309-.066-.463-.1.154.034.313.06.463.1a1.05 1.05 0 01.543.027c.094.025.191.058.287.093l.289.111-.29-.111zm-2.721-.644l.17.06a.637.637 0 01.155.117c-.057-.035-.11-.067-.155-.117l-.17-.06zm.96-.492c.165.05.313.13.443.242-.13-.116-.278-.2-.444-.252l.002.01zm-.707.41c.122-.09.213-.232.33-.327-.11.085-.203.228-.33.326zm-.77-.444a.7.7 0 01-.618.083.698.698 0 00.627-.1l.252.063-.262-.046zm-.05.422l-.025.003.026-.003zm-6.363-2.364c-.01.017-.032.028-.045.04a.343.343 0 01-.055-.034l.015-.024a.477.477 0 01.091.009l-.006.01zm-10.874.08a.3.3 0 00-.07-.074l.223-.268-.223.268a.333.333 0 01.075.062l-.005.012zM13.92 34.383zm-.608 3.3c.022.019.04.04.056.065a.279.279 0 01-.025.066.338.338 0 01-.07-.042.37.37 0 00.048-.084l-.01-.005zm.494 10.9c-.02.075-.046.146-.08.215.036-.067.065-.137.088-.209l-.008-.005zm-.132.304a.724.724 0 01-.123.139.737.737 0 00.13-.134l-.007-.005zm4.36 8.743a.54.54 0 01.061.465l.205.207c.055.08.107.16.144.236-.047-.082-.1-.163-.144-.236l-.205-.207a.54.54 0 00-.06-.465c-.172-.325-.544-.617-.527-.981l-.24-.392c-.366.08-.752-.14-1.007-.573.25.44.641.653 1.007.573l.24.392c-.002.358.364.66.534.985l-.008-.004zm5.92 6.877l.143.125.044.13-.044-.13-.144-.125-.403-.422c-.053-.032-.097-.078-.145-.12-.226.016-.452.037-.689.042.237-.005.463-.026.691-.044.045.045.093.084.143.122l.403.422zm52.59-33.194zM16.683 74.23c.075-.055.253.015.46.16-.206-.141-.382-.214-.46-.16zm1.158.873s.003 0 .002.001h-.002zm0 0a.061.061 0 01-.042.032.06.06 0 00.042-.028v-.004zm39.038-62.53l.058.036-.058-.035zm-.055-.07zm-4.976-1.741zm3.796 2.01a.14.14 0 00.012.076.135.135 0 01-.007-.082l-.005.007zm-4.03-.426a3.234 3.234 0 00.003-.003l-.002.003zm1.02 1.305l.26.158.755.54-.755-.54-.26-.158zm2.117-1.767l-.518-.107.518.107zm-2.71-1.235l.064-.03-.064.03zm-12.022.978a.398.398 0 00.049.091c.023.038.051.072.08.11-.029-.038-.057-.072-.08-.11a.344.344 0 01-.039-.097l-.01.005zM20.466 22.08c-.048.077-.152.178-.216.26l-.157.25.157-.25c.07-.078.164-.176.216-.26zm.694 41.222l.293.405-.293-.405c-.373-.338-.968-.542-1.018-1.096-.033-.308.296-.2.539-.109.143.056.264.14.366.253.117.34.594.835.113.952zm55.53-5.594c-.015.026-.03.05-.047.075l.048-.075c.01.049.024.1.039.153l.044.162-.044-.162c-.015-.052-.03-.104-.04-.153zM40.789 8.207l.131.588.22.152a.241.241 0 00.094-.005l.313-.248c.15-.237.36-.225.586-.173-.227-.052-.445-.069-.584.176l-.312.247a.266.266 0 01-.094.004l-.222-.152-.13-.588-.002-.001zm9.003 64.932l-.074.062.074-.062zm-.207.026a.19.19 0 00-.007-.003l.007.003zM36.93 9.408h-.106.106zm-8.651 3.495c.362-.169.53-.199.6-.157-.07-.042-.243-.014-.6.157zm-4.364 1.962c.093.036.105.097-.148.235l.04.007-.04-.007c.248-.13.237-.191.142-.228l.006-.007zm-7.308 9.72l.058-.024c.057-.017.118-.03.176-.047-.058.017-.119.03-.176.047l-.058.024zm6.892-9.944a.287.287 0 01.028-.073.265.265 0 00-.033.081l.005-.008zm-3.592 3.245a1.128 1.128 0 00-.006.01l.006-.01zm-.275.616l.064-.188-.064.188zm.589-.91a.443.443 0 00-.29-.016.445.445 0 000-.002.461.461 0 01.292.015l-.002.002zm-2.34 3.823l.01-.016-.01.016a45.906 45.906 0 01-.272-1.2c.083.409.172.812.267 1.21l.004-.01zm-7.545 29.19l-.083.063.083-.062zm6.317-27.792l.013.03-.013-.03zm-2.767 2.513zm-.351.854l.047-.075c-.024.032-.037.059-.053.084l.006-.009zm0 0a.73.73 0 01-.006.01l.006-.01zm.405-1.193c.002-.058.012-.116.018-.175-.006.06-.016.117-.018.175zm3.393-2.611l.04.044-.04-.044zm4.225-5.89a.875.875 0 00-.015.015l.015-.014zm0 0a.476.476 0 01-.01.012l.01-.011zm-9.51 14.134l.144.041-.144-.04zm8.1-11.854l-.34.025.34-.025zm.015.38a.783.783 0 00-.177.09.744.744 0 01.183-.097l-.006.008zM9.962 47.233zm-.347-4.883zm-.119-1.53a.413.413 0 00.232.177.412.412 0 01-.24-.182l.008.004zm.684-4.533c.117.256.191.522.222.8a2.605 2.605 0 00-.23-.804l.008.004zm.842-1.477a1.676 1.676 0 01.01-.282c-.015.092-.02.184-.018.277l.008.005zm.925-3.08c-.01-.068-.022-.137-.033-.203.011.066.024.135.033.203a2.8 2.8 0 01.037.408 2.813 2.813 0 00-.045-.412l.008.004zm.646-.693l.033.021-.033-.021zm6.88-10.689l-.097-.184-.038-.049-.56-.165.562.163.037.048.098.185-.003.002zm4.422-5.481l-.061-.02.06.02zm4.32-3.107l-.221.037.221-.037a1.276 1.276 0 00.008.006l-.008-.006zm-3.782 3.752l-.295.287.295-.287zm-1.466 1.727zm14.049-7.86l.001-.042-.001.043zm-6.075 2.015l.135-.07-.135.07c-.09.045-.185.093-.286.146.108-.05.201-.096.286-.146zm.344.542l.418.192-.418-.192c-.277.025-.307-.033-.262-.118-.038.09-.008.148.268.122l-.006-.004zm3.285-1.628l.004.055c-.24.076-.49.147-.728.227.239-.08.487-.151.728-.227l-.004-.055-.112.01.112-.01zm3.09-1.037a.869.869 0 00-.413.096l-.404.304.405-.307a.869.869 0 01.414-.095.467.467 0 01.123.02.404.404 0 00-.12-.025l-.004.007zM17.144 25.713zm8.982-10.45a.206.206 0 00-.016-.043c-.006-.136-.063-.286-.069-.422.006.136.063.286.069.422a.206.206 0 01.016.044zm11.867-5.89zm.25.123l-.039-.023.038.023zm.724-.362c.207.128.429.16.665.101.086-.014.174-.035.26-.055-.086.02-.174.04-.26.055a.833.833 0 01-.665-.1l-.39.152.39-.153zm-.429 1.985zm3.908-.845zm.2.231h.209-.209zm.723.058l.016.05-.016-.05c-.088-.016-.173-.024-.27-.039.097.015.182.023.27.039zm31.26 50.707zm-51.962 4.568zm1.166-.566c-.49.04-.98.055-1.471.045-.002-.094-.021-.166.006-.19.153-.152.25-.4.426-.521.176-.122.439-.112.932.23.086.058.16.429.107.436zm-5.14-5.092c-.02.031-.06.053-.088.079-.06.053-.117.108-.18.156.063-.048.12-.103.18-.156.019-.031.057-.054.088-.079zm-.401-.818a.265.265 0 00.111-.083.275.275 0 01-.105.075l-.006.008zm-2.424-4.889c.014.155.04.309.078.459a2.974 2.974 0 01-.072-.467l-.006.008zm-1.014.356l.15.109-.15-.109zm-.277-2.61c.115.282.154.6.254.887-.11-.293-.148-.61-.257-.89l.002.003zm-1.66-4.002l.076.1-.075-.1zm-.248-2.672l-.034-.178.034.178zm4.862-20.01zm5.322-6.438l.07-.06-.07.06c-.1.11-.204.217-.304.325.1-.108.205-.215.304-.325zm14.563-8.487zm7.155.759c.315-.615.922-.618 1.576-.536-.654-.082-1.261-.079-1.576.536zm.41.175l-.177.004.177-.005zm1.028-.855c-.678-.015-1.35-.02-2.025.014l-.206-.01.206.01c.677-.038 1.347-.03 2.025-.014zm1.222-8.375zm6.092 79.903l.038.008-.038-.008zm22.39-40.13s.035.04.037.061a.431.431 0 01-.036.117l-.072-.09a.306.306 0 01.07-.089zm-3.74 13.66zm-.02-.048zM43.7 72.977l-.093.017a.623.623 0 00-.41.074c-.608.108-1.233.204-1.841.26l-.133-.032c-.297-.114-.673-.18-.953-.312-.28-.133-.504-.306-.353-.585.233-.436.502-.333.81-.162.31.169.626.4.916.288.452.944 1.132.062 1.698.128.306.04.58-.02.728.168.208.27-.255.13-.37.156zM20.816 61.696zm-1.202-1.465l.066.118-.066-.118zM14.12 51.66l.236.313-.236-.313-.313-.698.313.699zm-.92-2.446zm-.162-.316zm.24-7.382l-.334-.964.334.964zm-.288-2.005zm.187-1.074zm.154-1.608zm2.601-8.207a.488.488 0 00.344-.08.494.494 0 01-.34.075l-.004.005zm.525-.988l.19.018-.19-.018zm8.511-10.192zm-1.35 2.111c.33-.525.721-.591 1.085-.448.04.024.005.21-.025.226-.392.195-.788.547-1.063.235l.004-.013zm2.645-1.77c-.001.03-.003.061-.002.088l.004-.092-.002.003zm.01.163a.198.198 0 00.026.063.193.193 0 01-.026-.065v.002zm3.738-3.205l.611.02-.61-.02c-.045.07-.076.148-.112.22.025-.082.07-.153.111-.22zm2.639-.416a5.5 5.5 0 01.441-.204c.023-.142.05-.289.059-.428-.008.139-.036.286-.059.428-.15.064-.3.132-.441.204zm2.566-1.691c.085-.044.177-.083.266-.128-.087.042-.18.082-.267.127l.314.34-.314-.34-.282.063.282-.063zM40.03 11.6c-.03-.123.062-.233.491-.316-.434.09-.527.201-.49.316zm.8.126a1.931 1.931 0 01-.113-.137c.017.047.063.1.102.143l.01-.006zm2.365.184c.591-.01 1.111-.089 1.377-.541-.266.452-.792.527-1.377.54-.29.024-.6.024-.882.044.282-.02.579-.028.882-.043zm14.516 1.365l.006.038-.006-.038zm-.048-.357a.757.757 0 01.448.172.764.764 0 00-.451-.175l.003.003zm.75.424l-.136-.116.135.116zm.309.187a.786.786 0 01-.158-.08.803.803 0 00.15.085l.008-.005zm.242-.413c.185.24.553.516.456.707.094-.184-.28-.463-.464-.704l.008-.003zm-1.482-1.047c.103.111.224.201.362.267a1.182 1.182 0 01-.37-.264l.008-.003zm-2.178-.418c.15.026.294.068.435.124a2.328 2.328 0 00-.442-.12l.007-.004zm-1.449-1.364l-.012.062.012-.062zm-6.377-.794zm-.897-.524l-1.195-.148 1.195.148zm-26.57-2.011zm-.346.172a.622.622 0 01-.073.034.955.955 0 00.07-.03l.003-.004zm-.14.062c-.022.007-.046.016-.066.021-.02.005.04-.01.069-.013l-.004-.008zM59.101 80.07c.423-.34.9-.573 1.431-.701.2-.063.402-.122.603-.187-.2.065-.402.124-.603.187a3.614 3.614 0 00-1.431.7 4.446 4.446 0 01-.276.165c.09-.046.183-.1.271-.158l.005-.007zm21.134-44.986c.317.152.54.389.666.711.059.204.085.412.078.623.003.24-.018.495-.023.732-.237-.309-.505-.594-.82-.967.024-.25.04-.532.06-.751.02-.218.017-.362.04-.347zm-1.117-6.23a.2.2 0 00.001-.002l-.001.003zm-3.322-3.811a30.57 30.57 0 01-.14-.086.27.27 0 01-.025-.136s.058.018.073.045c.016.027.053.09.092.177zm-2.35-5.679c.094.092.117.448.176.702l-.775-.2c.05-.323-.07-.71-.404-1.221a7.63 7.63 0 011.002.72zm-7.41-5.863c-.721-.3.65 1.295-.604.254-.775-.607-.388-.824.225-.782l.096.059c.187.188.667.63.283.47zm-4.292-1.315c.339.165.8.355.968.546.38.388.799.732 1.256 1.03.23.155.47.303.72.437s.486.294.729.442c.244.147.486.293.716.46.23.164.445.337.653.515.205.177.396.366.576.569.167.206.311.427.434.66a.68.68 0 00.152.073c.23.087.45.192.661.315.213.128.414.273.612.424.197.152.388.315.592.497.205.182.37.373.553.565l.544.586.525.606c.167.198.36.395.535.591.177.196.344.386.54.577.851.82 1.559 1.876 2.275 2.945.715 1.07 1.382 2.201 2.168 3.25-.319-1.563.21-.583.47-.25.48.634.047-.786.653-.063.14.161.265.334.376.516.094.17.174.345.24.527.133.352.231.7.35 1.075l.182.522a8.67 8.67 0 00-1.073.337c-.13.06-.306.157-.066.685a34.13 34.13 0 012.569 8.961c.036.261.072.521.097.78a.344.344 0 00-.054-.017c-.311-.073-.611-.112-.511-.71.317-1.989-.058-3.64-1.155-4.764-.176-.184-.343-.184-.354.136-.01.754-.04 1.535-.091 2.281-.007.184-.143.49-.185.463-.2-.097-.14-.372-.106-.601l.036-.197c.057-.26.06-.52.008-.78a1.9 1.9 0 00-.301-.721 2.208 2.208 0 01-.232-.716c-.04-.252-.06-.511-.101-.771-.071-.512-.127-1.035-.45-1.442a.548.548 0 00.099-.352.546.546 0 00-.139-.341l-.047-.172c-.115-.568-.428-1.057-.676-1.562a6.879 6.879 0 01-.185-.381c-.054-.125-.13-.26-.172-.393a3.108 3.108 0 01-.212-.848c-.068-.147-.135-.294-.214-.436-.215-.465-.417-.936-.64-1.399l-.098-.312a3.76 3.76 0 00-1.04-1.513 34.73 34.73 0 00-1.444-2.431 26.943 26.943 0 00-.845-1.139c-.295-.37-.643-.697-.99-1.021-.128-.127-.484-.351-.327-.098.27.477.533.97.82 1.44.254.49.546.955.88 1.396.272.384.608.722.838 1.066a1.2 1.2 0 01.22.527.903.903 0 01-.099.562c-.104.199-.388.32-.217.625a.58.58 0 00.772.3.532.532 0 01.439.232c.16.347.274.709.343 1.085a.193.193 0 01-.08.156.557.557 0 01-.099.078c-.432-.63-.424.057-.408.153a.852.852 0 00.603.652c.144.06.267.148.369.264.079.102.13.215.156.34.037.255.05.512.04.77.006.15-.012.28-.024.43.124.036.236.092.339.17.381.317.713.676.994 1.08.229.426-.185.297-.246.51-.108.32-.19.645-.244.978-.025.45.103.852.387 1.206.26.34.717 1.068.043 1.29-.062.29-.113.575-.183.858l-.222.855c.602.44.596.957.481 1.466-.113.508-.368 1.011-.296 1.507a1.436 1.436 0 01-.05.366c.04.024.112.068.128.043.065-.109.114-.225.144-.347.069-.278-.122-.804.17-.809.109 0 .294.56.32.89.013.21-.262.417-.326.665-.128.438-.403.697-.615 1.032a2.102 2.102 0 00-.305 1.507c.06.744.25 1.798.01 2.349-.28.754-.482 1.526-.604 2.32-.13.47-.296.928-.499 1.373a3.82 3.82 0 00-.405 1.443c-.02.22.312.986-.415 1.003-.113.002-.23.017-.346.024-.013.096-.038.201-.057.302-.031.087-.042.177-.031.269.118.627-.376 1.173-.583 1.741a3.807 3.807 0 01-.397.79c-.16.257-.36.494-.526.746a3.928 3.928 0 00-.416.785 1.812 1.812 0 00-.129.894 1.58 1.58 0 01-.208.607 1.49 1.49 0 01-.303.427c-.413.037-.665.5-.97.908-.306.408-.614.793-1.045.683-.099-.03.01.203.048.296.09.207.283.356.084.738-.343.655-.757.367-1.143.68-.048.038-.2.006-.193-.033.036-.245.02-.436-.312-.189-.275.201-.103.43-.165.534-.228.365.22.42.294.615a1.86 1.86 0 01-.591.171 2.5 2.5 0 00-.462.14 1.495 1.495 0 00-.346.179c-.18.13-.315.296-.406.497a4.14 4.14 0 00-.145.4c-.071.034-.141.066-.205.099-.26.13-.451.253-.431.524a1.41 1.41 0 01-.008.283 1.49 1.49 0 00-.373.33c-.07.07-.136.147-.202.223-.24.125-.46.28-.657.464-.275.148-.557.285-.836.423l-.152.243-.018.055c-.265.176-.542.333-.81.498-.079.048-.153.101-.229.15-.074.05-.215.13-.322.197-.233.145-.469.305-.7.46l-.706.443c-.234.146-.46.296-.701.439a2.306 2.306 0 00-.138.074l-.015-.158c-.448.275-.703.655-1.284.787-1.008.21-2.05.223-2.841 1.024a.646.646 0 01-.382.141c-.979-.305-1.513.044-2.112.662-.223.22-.49.345-.803.377a2.093 2.093 0 01-.86-.072c-.446-.15.28-.314.385-.492.043-.068.059-.208.033-.21a1.066 1.066 0 00-.473.002c-.612.262-1.233.568-1.885.179-.036-.022-.157-.006-.224.007-.47.117-.936.257-1.41.384-.481.11-.966.195-1.457.254a11.49 11.49 0 01-1.541.034 2.67 2.67 0 01-1.367-.517c-.135-.105-.107-.327-.411-.324-.216.015-.421.07-.613.167-.632.296-1.136.854-2.203.202l-.22-.248c-.22-.298-.43-.289-.645-.082l-.142-.034c-.391-.31-.85-.045-1.24-.243l-.183-.072a8 8 0 01-.869-.403 1.936 1.936 0 00-.766-.229c-.273-.03-.563-.035-.828-.078a2.357 2.357 0 01-.779-.224 1.165 1.165 0 01-.568-.632l-.334.006c-.616 0-.966-.537-1.502-.698-.275-.103-.566-.175-.843-.283-.287-.11-.53-.28-.73-.51a3.915 3.915 0 00-.977-.87 3.973 3.973 0 00-1.212-.51l-.519-.223c-.675-.449-1.302-.96-1.939-1.461a33.663 33.663 0 01-2.815-2.545l-.471-.45c-.149-.162-.284-.333-.426-.499a31.325 31.325 0 01-3.35-4.416c-1.152-1.711-1.837-3.65-2.77-5.465-.083-.502-.653-.872-.483-1.442.243-.173.096-.348-.09-.527l-.217-.05c-.074-.107-.157-.217-.215-.321.064.108.14.214.215.32l.217.051-.003-.195-.027-.14c-.144-.05-.111-.625-.367-.348l-.227-.524c-.022-.147-.044-.294-.059-.438-.014-.143-.009-.293-.017-.439 0-.268.04-.531.123-.788-.056-.296-.072-.6-.112-.898l-.025-.19c-.05-.227-.117-.45-.162-.673l-.127-.688c-.078-.59.12-1.186-.105-1.774a5.62 5.62 0 01.01-.515l-.091-.68-.034-.412-.012-.415.115-1.073.141-1.034c.039-.344.113-.682.177-1.023.065-.34.115-.681.212-1.023l-.18-.029-.063-.46.063.46.18.03.118-.692c.04-.232.07-.463.137-.685l.044-.387c-.004-.177.026-.396-.181-.294a.141.141 0 01-.106-.065 3.16 3.16 0 01.102-.444c.026-.04.034-.095.048-.14.408-.246.443-1.094.697-1.172.842-.227.669-.683.517-1.253l-.044-.228-.074-.307-.004-.055c.103-.293.223-.583.352-.878.03-.076.068-.15.104-.226.25-.08.505-.147.765-.198a.936.936 0 00.457-.303.883.883 0 00.202-.504c.119-.503-.305.058-.377-.087l-.007-.062c.058-.46.22-.883.482-1.27.272-.347.618-.59 1.042-.727.239.165.61.217.29.835-.052.083.07.229.106.352.056-.13.108-.26.17-.386a1.94 1.94 0 00.246-.755c-.003-.188-.128-.308-.48-.277-.036.002-.034-.325.02-.367.273-.276.469-.598.586-.966.138-.376.389-.655.75-.84l.064-.295c.207-.163.428-.291.638-.436l.234-.21c.29-.094.304-.32.366-.517.207-.163.433-.313.176-.453l.112-.179c.139-.155.27-.317.402-.476.134-.153.278-.298.429-.434a1.956 1.956 0 011.11-.553c.394-.05.678.316 1.018-.013.22-.233.4-.512.613-.72a.736.736 0 01.401-.222.717.717 0 01.456.062c.05.03.412-.24.476-.077.05.117-.084.332-.138.492-.037.11-.268.399 0 .273.467-.198 1.207-.566 1.114-.93-.094-.365.075-.983-.712-.903l-.256-.095c.244-.211.506-.398.785-.563.27-.176.55-.333.84-.47.575-.27 1.166-.5 1.77-.694.066.162-.123.264-.26.417a2.065 2.065 0 00-.41.655c-.015.022.128.056.196.082.14-.177.296-.341.449-.505.152-.164.302-.336.444-.508.024-.037-.185-.133-.288-.203l.01-.017.402-.272-.198-.005c-.254.02-.506.052-.757.097a7.54 7.54 0 01.764-.104l.2.005c.113-.046.235-.078.363-.113l.138-.178-.138.178 1.006-.41c.33-.14.688-.245 1.02-.374.333-.13.688-.228 1.037-.33.347-.103.69-.225 1.046-.302.342-.17.791.044 1.088-.29.563-.094 1.12-.209 1.683-.29l.844-.11.423-.055.423-.031a.752.752 0 01.323-.315c.141-.073.29-.1.447-.082.294-.001.618.12.91.121.331-.11.64-.262.93-.455a1.774 1.774 0 011.11-.231c0-.063.045-.157-.01-.187-.194-.118-.193-.25.028-.314a.836.836 0 01.565.054c.786.931 2.147 1.085 3.563 1.349.11.037.212.09.304.161-.113.052-.223.153-.34.148-.198-.005-.4-.015-.599-.028l-.3-.021h-.293a24.263 24.263 0 00-1.2-.013c-.79.057-1.55.17-2.193.574-.142.086-.332.17-.376.277-.043.106.05.317.13.328.241.019.46-.04.656-.178a3.73 3.73 0 01.768-.398.798.798 0 01.864.18c.442.433.776.511 1.42.394a2.81 2.81 0 01.965.056c.572.118.91.12 1.1-.013.189-.134.22-.394.169-.735.377.27.64-.014.989.046l.14.269c.023.126.064.245.126.357a1.18 1.18 0 00.551.512c.119.054.241.087.37.102.49.115 1.089.084 1.63.146l.112.01c.175.286.553.336.877.468l.234-.013c.395.084.779.202 1.151.355.37.156.751.187 1.143.093-.05.171.045.24.31.268.555.049 1.13.178 1.685.264.308.04.884.351.836-.006-.048-.357-.638-.441-1.04-.543-.083-.3-.387-.445-.711-.55-.324-.103-.656-.208-.796-.48l-.31-.309-.161-.078-.511-.309-.976.143.943-.16.064-.102c.36-.412.863-.34 1.407-.167-.539-.183-1.047-.245-1.407.167l-.064.102.511.31c.489-.28.95.347 1.431.37l.335.204.529.248a.343.343 0 00.085.037c.298.132.599.253.889.392a34.328 34.328 0 013.532 2.121c.253.174.611.486.775.33.163-.153-.165-.481-.427-.718a37.406 37.406 0 00-2.06-1.707c-.205-.165-.42-.328-.633-.487a34.236 34.236 0 00-1.745-1.167l-.476-.287c-.206-.413-.887-.227-1.128-.603l-.068-.04.233-.064 1.122.417c.37.153.741.302 1.106.466a34.22 34.22 0 012.162 1.039l.112-.122-.112.122c.327.146.62.274.453-.128l.033-.056c.414-.137 1.37.698 1.44.116.03-.27-.364-.854-1.078-1.076l-.154-.114c.526-.374-.104-.592-.7-.923-.962-.538-1.61-1.411-2.77-1.781l-.388-.13-.295.2.295-.2-.639-.323c-.222-.114-.435-.198-.654-.298l-.013.312.233.14-.233-.14.013-.312-.288-.143a2.095 2.095 0 00-1.153-.49 3.097 3.097 0 01-1.224-.382c-.137-.043-.28-.075-.421-.108l-.753-.198-.21-.058c-1.191-.433-2.412-.902-3.663-1.067-.666-.09-1.329-.167-1.986-.285-.476-.06-.951-.13-1.43-.192.581.006 1.153.027 1.717.024.64.042 1.284.08 1.917.151l.248.132c.051.019.104.034.158.048a2.4 2.4 0 00.713.183 9.029 9.029 0 011.223-.004c.211.013.42.044.627.091.228.049.444.13.647.246.79.427 1.26.495 1.425.06l.996.278c.33.096.672.174.99.286l.987.333.486.16.486.19c.63.311 1.262.606 1.866.957.326.124.631.287.915.49.29.225.619.368.983.429zM59.72 16.68a.884.884 0 00.389-.052.896.896 0 01-.396.049l.007.003zm.468-.09c.036-.015.07-.032.105-.051-.041.015-.075.032-.11.047l.005.005zm12.89-1.16c-.278.057-.46.27-1.133-.346a1.282 1.282 0 01-.33-.441c.017-.278.346-.214.76-.012.233.265.478.517.698.796l.005.004zm-16.59 66.232l.112-.034-.112.034zm1.418-.707l.466-.15.109-.201c.102-.024.193-.043.276-.057.28-.052.435-.05.506-.01-.07-.043-.226-.042-.507.01a4.657 4.657 0 00-.275.057l-.107.203-.468.148zm5.805-2.258l.416-.325c.104-.164.085-.333.133-.495-.053.167-.025.343-.133.496l-.416.323zm8.264-5.294a.378.378 0 00-.02.187.381.381 0 01.012-.192l.008.005zm5.325-6.69c-.652.408-.604.078-.524-.283-.08.36-.137.685.524.283.087.053-.094.346-.108.49.006-.148.188-.444.1-.494l.008.004z" fill="#F0CA41"/><path d="M18.058 40.084c-1.195 1.146-1.78 2.212-1.751 3.249.028 1.038.667 1.584 1.945 1.584.862.028 1.919-.518 3.197-1.612a25.95 25.95 0 003.447-3.686c1.055-1.365 2-2.758 2.862-4.179 1.807-.3 3.169-.49 4.086-.572.056.955.25 2.02.529 3.195a21.932 21.932 0 001.222 3.687c.556 1.31 1.168 2.458 1.89 3.495a8.043 8.043 0 002.558 2.457c1 .602 2.084.847 3.196.684.194 0 .277-.055.277-.11 0-.054-.083-.054-.25-.054-1.166.054-2.278-.602-3.335-1.94-1.084-1.31-1.973-3.003-2.64-5.08a27.15 27.15 0 01-1.334-6.416c1.278.026 2.224.245 2.806.682.584.437.807.983.668 1.584v.218c0 .055.056.083.111.083s.14-.11.195-.3c.166-.684-.055-1.284-.696-1.803-.639-.492-1.667-.765-3.112-.82-.223-2.867-.083-6.417.444-10.623.029-.328-.138-.573-.5-.737-.361-.165-.723-.219-1.112-.219-.388.028-.583.082-.556.137-.195 1.474-.722 3.331-1.611 5.625-.89 2.294-1.919 4.48-3.142 6.554-2.057.465-3.557.902-4.502 1.311-.111.056-.14.137-.111.246 0 .165.083.219.25.165.612-.383 1.973-.847 4.085-1.34-1.112 1.994-2.613 3.989-4.502 6.01-1.89 2.02-3.391 3.03-4.503 3.003-.667 0-1.112-.218-1.335-.655-.221-.437-.194-.956.084-1.611.278-.63.723-1.23 1.362-1.803.25-.218.333-.383.25-.491-.138-.082-.306-.055-.473.082zm10.006-5.053a47.947 47.947 0 004.252-9.858c-.25.955-.444 2.211-.555 3.768-.112 1.556-.112 3.414.028 5.598-.945.082-2.169.247-3.725.492z" fill="#2F2F2F"/><path d="M40.15 36.97c.196.11.557.246 1.113.437.556.22.917.355 1.111.465.556.327.862.655.89.982 0 .329-.112.792-.39 1.34a36.347 36.347 0 00-1 3.494c-.556 2.185-.64 3.223-.278 3.06.584-.274 2.168-2.978 4.78-8.111h.307c-2.697 5.515-4.392 8.383-5.06 8.629a.73.73 0 01-.583-.054c-.556-.274-.89-.847-1.029-1.72a7.256 7.256 0 01-.028-2.568c.14-.874.363-1.666.668-2.376.056-.191.166-.41.277-.683.112-.273.195-.465.251-.6.055-.11.11-.273.167-.492a1.73 1.73 0 00.083-.41l-.028-.328c-.055-.219-.528-.492-1.362-.765l-.695 1.475h-.305c.167-.355.416-.873.722-1.583-.639-.247-1.111-.656-1.39-1.23-.277-.546-.389-1.12-.305-1.692a2.422 2.422 0 01.722-1.421c.53-.519 1.002-.71 1.39-.6.39.108.612.518.723 1.174v.737c-.111 1.037-.362 1.994-.75 2.84zm-.277-.109c.388-.956.64-1.884.694-2.758.028-.383.028-.71-.028-.93-.083-.326-.278-.408-.556-.19-.444.3-.777.847-1 1.612-.333 1.174-.055 1.939.89 2.266z" fill="#2F2F2F"/><path d="M55.214 38.637c-.668 1.31-1.613 2.73-2.78 4.26-.111-.547-.25-1.448-.36-2.677-.14-1.228-.167-2.021-.112-2.404 0-.108-.084-.19-.25-.273a1.838 1.838 0 00-.556-.082c-.223 0-.334.056-.39.165 0 .054-.027.164-.027.355-.028.191-.055.3-.055.327a2.698 2.698 0 00-.834-1.174c-.418-.3-.89-.41-1.39-.3l-.195.055c-1.111.3-1.862 1.174-2.196 2.649-.361 1.392-.278 2.621.25 3.686.528 1.147 1.334 1.502 2.419 1.092.444-.164.834-.655 1.223-1.474.361-.819.64-1.693.806-2.676.028.655.221 2.02.584 4.068-.584.711-1.862 1.858-3.81 3.442-1.972 1.583-3.278 2.758-3.945 3.522-.779.875-1.335 1.694-1.668 2.486-.334.819-.473 1.502-.417 2.075.056.574.277 1.038.667 1.42.39.383.862.656 1.473.765.612.136 1.306.109 2.14-.055.834-.163 1.668-.49 2.558-.983 1.39-.765 2.473-1.802 3.252-3.14a10.628 10.628 0 001.334-4.26c.139-1.475 0-3.524-.417-6.117.444-.574 1-1.366 1.64-2.376.611-.984 1.084-1.776 1.362-2.376h-.306zm-3.808 6.007c.361 2.294.138 4.452-.695 6.473-.834 2.048-1.89 3.631-3.17 4.751-1.5 1.311-2.805 1.858-3.973 1.639-.89-.136-1.418-.656-1.557-1.53-.25-1.31.417-2.867 1.974-4.642.667-.765 1.917-1.885 3.752-3.36 1.835-1.473 3.058-2.566 3.669-3.33zm-.806-5.407c0 .71-.194 1.639-.612 2.84-.444 1.202-.917 1.802-1.418 1.858-.25.026-.472-.138-.639-.52-.166-.383-.278-.846-.333-1.42a9.352 9.352 0 010-1.775c.055-.6.167-1.174.39-1.72.221-.519.499-.874.833-1.093.361-.219.723-.163 1.056.164.334.328.555.874.723 1.666z" fill="#2F2F2F"/><path d="M56.241 37.653a3.16 3.16 0 00-1.251 1.365c-.278.602-.416 1.202-.388 1.858 0 .928.221 1.693.694 2.294.444.6 1 .956 1.612 1.064.611.11 1.279-.081 1.946-.628.667-.518 1.167-1.337 1.556-2.457 1.446-.136 2.53-.983 3.308-2.512h-.306c-.834 1.42-1.807 2.157-2.919 2.184.501-2.02.251-3.495-.805-4.37-.723-.573-1.473-.71-2.28-.437-.778.273-1.167.82-1.167 1.639zm3.863 3.468c-.11.328-.25.601-.361.847-.723 1.42-1.528 1.993-2.39 1.72-.64-.163-1.084-.682-1.306-1.556-.333-1.093-.112-2.076.61-2.895.057.191.195.41.39.628.168.245.556.519 1.112.82.556.3 1.196.436 1.945.436zm.084-.3a4.1 4.1 0 01-2.001-.437c-.667-.328-1.084-.792-1.252-1.392.39-.22.724-.301.974-.301.223 0 .417.054.556.11.028 0 .055-.11.083-.274a2.319 2.319 0 000-.628 1.332 1.332 0 00-.278-.601c-.111-.054-.361-.082-.75-.054-.417.054-.723.11-.918.218.056-.547.306-.902.806-1.065.667-.219 1.306-.028 1.947.518.944.875 1.222 2.185.834 3.906z" fill="#2F2F2F"/><path d="M71.387 38.637c-.333.682-.834 1.447-1.5 2.267-.667.846-1.196 1.447-1.612 1.774-.334-.654-1.029-1.61-2.029-2.922-1.028-1.31-1.64-2.157-1.835-2.54.612-1.255 1.056-2.567 1.28-3.932.11-.628.082-1.12-.085-1.447-.25-.519-.694-.628-1.334-.301-.75.383-1.279 1.065-1.584 2.049-.556 1.692-.166 3.686 1.223 5.98.305.546.806 1.31 1.528 2.321.696 1.039 1.112 1.694 1.279 1.994-.027.027-.194.137-.472.355-.278.219-.556.464-.834.683-.279.245-.612.518-.973.847-.361.327-.695.682-1 1.037-.334.382-.584.71-.75 1.038-.613 1.065-.64 1.911-.084 2.567.5.656 1.306.874 2.418.656 1.362-.273 2.445-1.12 3.279-2.54.417-.737.64-1.584.695-2.54.028-.93-.166-1.94-.584-2.977.446-.382.974-1.01 1.64-1.83a14.275 14.275 0 001.669-2.539h-.335zm-4.53 5.571c.611 1.284.667 2.703.112 4.232-.418 1.093-1.057 1.83-1.946 2.158-.834.328-1.501.218-2.03-.273-.64-.546-.64-1.365 0-2.403.39-.656.973-1.338 1.807-2.075.834-.738 1.501-1.284 2.057-1.639zm-2.64-7.265c-.584-.928-.723-2.048-.417-3.358a2.94 2.94 0 01.306-.875c.305-.656.61-.955.944-.955.39 0 .5.518.334 1.557-.223 1.174-.612 2.375-1.168 3.631zM16.78 76.522v.18c0 .736 0 1.217.107 1.697.214.615.749.93 1.208.962.076.014.123 0 .26 0h.32c.321 0 .642 0 .994-.076.397-.12.703-.33.978-.66.2-.256.32-.797.367-1.352.03-.376.046-.736.046-1.006v-.18l.015-.241c.046-.646.061-1.126.061-1.351v-.24c0-.421-.03-.766-.076-1.022-.23-.766-.383-1.32-1.07-1.711-.443-.226-1.147-.285-1.697-.285h-.32v-.992c0-.09-.015-.21-.015-.33v-.165c0-.256 0-.511.014-.886l.016-.27a.503.503 0 00-.076-.21l-.061-.06a1.157 1.157 0 00-.505-.136c-.474 0-.535.33-.535.781v.36c0 .045.016.09.016.135 0 .18 0 .586.014.842 0 .165.016.3.016.434v.497c0 .105 0 .164-.03.194a17.498 17.498 0 00-.062 2.328v-.015c.016.3.03.735.03 1.351 0 .39 0 .856-.014 1.427zm1.116-2.508c0-.51 0-1.126.031-1.561a2.571 2.571 0 01.932-.075c.336.045.58.18.703.374.198.317.305.872.32 1.563 0 .345-.015 1.17-.045 2.012-.03.915-.137 1.382-.198 1.517v-.016c-.123.21-.26.271-.444.346-.275.03-.535.044-.764.044-.213 0-.352-.075-.428-.27-.03-.18-.03-.36-.03-.48 0-.496 0-1.126-.015-1.472l-.046-1.246c0-.09-.016-.166-.016-.225v-.511zm8.314 2.929l-.077-.015c-.305.015-.519.196-.657.556l-.015.045v-.015c-.03.045-.046.165-.046.255 0 .03-.014.15-.046.18-.076.15-.26.21-.474.21-1.145 0-1.542-.54-1.542-1.576 0-.105-.016-.21-.016-.3v-.256c-.016-.15-.016-.27-.016-.405v-.285c.352-.045.796-.045 1.56-.045h.183l.122.014c.031 0 .076 0 .107.016.031 0 .061.015.108.015.075.014.213.03.29.03.367 0 .61-.166.794-.466l.015-.12c-.198-2.913-.535-3.68-2.276-3.68-1.453 0-2.125.797-2.125 3.38 0 1.096.03 3.138.428 3.694.427.87 1.375 1.155 2.14 1.155h.076c1.009-.075 1.85-.3 1.85-1.696 0-.36-.093-.57-.383-.69zm-2.552-4.475c.076-.135.275-.165.566-.21h.107c.229 0 .412.06.55.12h-.016c.169.09.244.39.276.84.03.242.045.527.06.992h-.733c-.351-.015-.657-.015-.917-.015h-.23c-.015-.15-.015-.285-.015-.48 0-.45.061-.856.352-1.247zm12.225 4.475l-.077-.015c-.305.015-.518.196-.657.556l-.015.045v-.015c-.03.045-.046.165-.046.255 0 .03-.014.15-.046.18-.076.15-.26.21-.474.21-1.145 0-1.542-.54-1.542-1.576 0-.105-.016-.21-.016-.3v-.256c-.016-.15-.016-.27-.016-.405v-.285c.352-.045.796-.045 1.56-.045h.183l.122.014c.031 0 .076 0 .107.016.031 0 .062.015.108.015.075.014.214.03.29.03.367 0 .611-.166.794-.466l.015-.12c-.198-2.913-.535-3.68-2.276-3.68-1.453 0-2.125.797-2.125 3.38 0 1.096.03 3.138.428 3.694.427.87 1.375 1.155 2.14 1.155h.076c1.009-.075 1.85-.3 1.85-1.696 0-.36-.093-.57-.383-.69zm-2.552-4.475c.076-.135.275-.165.566-.21h.107c.23 0 .413.06.55.12h-.016c.169.09.244.39.276.84.03.242.045.527.06.992h-.733c-.351-.015-.657-.015-.917-.015h-.23c-.014-.15-.014-.285-.014-.48 0-.45.06-.856.35-1.247zm6.817-.015c-.061.345-.138.72-.214 1.051-.061.254-.092.48-.137.705a41.952 41.952 0 01-.506 2.193l-.075-.24h.014l-.152-.436c-.154-.496-.306-.962-.428-1.441l-.428-1.457v.015l-.107-.376-.138-.345-.168-.48v.015c-.076-.36-.306-.376-.534-.376h-.153c-.32.105-.444.27-.444.526 0 .06 0 .12.03.21l-.014-.015c.076.45.182.781.305 1.096 0 .015.03.135.046.165l.153.495c.077.241.184.497.26.737l.152.405c.215.616.413 1.246.596 1.908.123.434.26.93.337 1.366l.03.15c.047.285.276.87.734.975l.107.016c.474 0 .566-.54.627-.976l.015-.105c0-.03 0-.075.015-.12.03-.181.107-.511.184-.857l.137-.66c0-.015.031-.15.062-.24l1.1-4.505c0-.045.015-.075.015-.09 0-.256-.275-.466-.657-.466-.23 0-.352.075-.428.18-.2.331-.244.526-.336.977zm5.286-1.276c-1.987 0-3.53 2.253-3.53 3.814v.42c.183 2.373 1.299 3.59 3.515 3.95h.275c2.552 0 3.194-2.027 3.194-3.844 0-.526-.045-.932-.152-1.277h-.016c-.381-1.487-1.544-3.063-3.286-3.063zm1.422 6.682c-.23.225-.658.285-1.208.285-.091 0-.183 0-.275-.014h.015c-1.589-.271-2.338-1.412-2.338-2.688 0-.526.06-1.081.32-1.576v.014c.52-.976 1.24-1.577 2.064-1.577.382 0 .749.15 1.115.466l.444.42a3.9 3.9 0 01.703 2.192v.18c-.06 1.007-.274 1.803-.84 2.298zm5.179.496c-.504-.18-.824-.572-.824-2.553v-1.156c0-.646.015-2.042.015-5.977 0-.45-.366-.57-.55-.57-.397 0-.657.285-.657.766 0 .375.015.96.03 1.41a89.6 89.6 0 01.03 2.268v3.379c.017 1.142.031 2.794 1.101 3.333l.398.18c.09.016.122.031.229.031.183 0 .337-.09.458-.24l.123-.286c0-.06-.03-.165-.061-.21l-.291-.375zm3.775-5.902c-.06.345-.137.72-.213 1.051-.06.254-.092.48-.137.705a41.952 41.952 0 01-.506 2.193l-.075-.24h.015l-.153-.436c-.154-.496-.305-.962-.428-1.441l-.428-1.457v.015l-.106-.376-.139-.345-.168-.48v.015c-.076-.36-.306-.376-.534-.376h-.153c-.32.105-.443.27-.443.526 0 .06 0 .12.03.21l-.015-.015c.076.45.183.781.305 1.096 0 .015.03.135.046.165l.153.495c.077.241.184.497.26.737l.152.405c.215.616.413 1.246.597 1.908.122.434.26.93.336 1.366l.03.15c.047.285.276.87.734.975l.107.016c.474 0 .566-.54.627-.976l.015-.105c0-.03 0-.075.015-.12.03-.181.107-.511.184-.857l.137-.66c0-.015.031-.15.062-.24l1.1-4.505c0-.045.015-.075.015-.09 0-.256-.275-.466-.657-.466-.23 0-.351.075-.428.18-.2.331-.244.526-.336.977zm3.072-1.847c.367 0 .474-.315.474-.735 0-.33-.062-.676-.092-.841-.091-.39-.382-.72-.718-.72-.397 0-.49.675-.49 1.171 0 1.096.474 1.126.826 1.126zm-.719 5.316v2.763c.03.436.337.556.536.556.412 0 .672-.3.672-.766 0-.33 0-.84-.015-1.17a84.445 84.445 0 01-.032-2.494v-2.163c0-.315.016-.645.016-.975a.547.547 0 00-.55-.586c-.397 0-.657.316-.657.767 0 .21 0 1.471.016 2.311 0 .661.014 1.307.014 1.757zm7.321-2.629c0-.615 0-1.2-.412-1.606-.383-.375-.948-.525-1.513-.525-.321 0-.643.044-.857.105-.794.225-1.42.6-1.512 1.456a17.826 17.826 0 00-.107 2.027v3.003c0 .436-.016 1.156.412 1.367.123.075.245.09.306.09.504 0 .504-.631.504-1.186v-.616c0-.75 0-1.606-.014-2.313-.016-.45-.032-.9-.032-1.336 0-.225.016-.42.046-.646 0-.03.016-.074.016-.12.046-.346.687-.63 1.115-.72.504.014.78.255.856.796.061.435.061.9.061 1.366v.916c-.015.3-.015.6-.015.885v1.442c0 .69.045 1.487.658 1.487.564 0 .564-.36.564-.901v-.27c0-.436-.03-.871-.06-1.172-.016-.12-.016-.18-.016-.24v-3.289zm2.476 5.377c.382.465 1.04.69 1.604.69.49 0 .902-.165 1.254-.39 0 .496.014.795.03 1.276.016.39.03.735.03.976 0 .81-.244 1.351-.305 1.411-.138.166-.459.226-.765.226-1.237 0-1.252-.856-1.282-1.562-.016-.66-.047-1.231-.78-1.231-.306.18-.428.345-.46.616.077 1.666.14 1.907.506 2.462.397.601 1.36.855 1.986.855 1.238 0 2.262-.48 2.262-2.838 0-.404-.015-.75-.03-1.05-.015-.225-.015-.421-.015-.601-.016-.27 0-.466 0-.63 0-.105.014-.226.014-.316l.016-1.035v-.196c0-.36-.016-.691-.03-1.036 0-.346-.016-.676-.016-1.006l.016-2.073c0-.466-.23-1.216-.597-1.531l-.23-.21a2.824 2.824 0 00-1.344-.331c-1.054 0-2.277.631-2.552 1.592-.123.42-.137.84-.137 1.276v.661c0 .21.014.376.014.57v.18c0 .136-.014.316-.014.496 0 .841.107 2.103.825 2.748zm.427-4.1c0-.24.016-.42.03-.631v-.48c0-.676.43-1.186 1.377-1.186 1.008 0 1.07.81 1.07 1.786 0 .42 0 .812-.016 1.157 0 .3-.016.586-.016.87 0 .136-.03.286-.045.406-.016.09-.016.21-.016.3 0 .75-.52 1.456-1.222 1.456-.55 0-.948-.525-1.1-.885-.092-.195-.107-.555-.092-1.02l.03-1.773z" fill="#2F2F2F"/></svg>