<svg width="12" height="12" viewBox="0 0 12 12" fill="none" xmlns="http://www.w3.org/2000/svg">
<path d="M11.3177 9.37633C11.3177 9.56833 11.275 9.76566 11.1843 9.95766C11.0937 10.1497 10.9763 10.331 10.8217 10.5017C10.5603 10.7897 10.2723 10.9977 9.94699 11.131C9.62699 11.2643 9.28033 11.3337 8.90699 11.3337C8.36299 11.3337 7.78166 11.2057 7.16832 10.9443C6.55499 10.683 5.94166 10.331 5.33366 9.88833C4.72033 9.44033 4.13899 8.94433 3.58433 8.39499C3.03499 7.84033 2.53899 7.25899 2.09633 6.65099C1.65899 6.04299 1.30699 5.43499 1.05099 4.83233C0.794992 4.22433 0.666992 3.64299 0.666992 3.08833C0.666992 2.72566 0.730992 2.37899 0.858992 2.05899C0.986992 1.73366 1.18966 1.43499 1.47233 1.16833C1.81366 0.832326 2.18699 0.666992 2.58166 0.666992C2.73099 0.666992 2.88033 0.698992 3.01366 0.762992C3.15233 0.826992 3.27499 0.922992 3.37099 1.06166L4.60833 2.80566C4.70433 2.93899 4.77366 3.06166 4.82166 3.17899C4.86966 3.29099 4.89633 3.40299 4.89633 3.50433C4.89633 3.63233 4.85899 3.76033 4.78433 3.88299C4.71499 4.00566 4.61366 4.13366 4.48566 4.26166L4.08033 4.68299C4.02166 4.74166 3.99499 4.81099 3.99499 4.89633C3.99499 4.93899 4.00033 4.97633 4.01099 5.01899C4.02699 5.06166 4.04299 5.09366 4.05366 5.12566C4.14966 5.30166 4.31499 5.53099 4.54966 5.80833C4.78966 6.08566 5.04566 6.36833 5.32299 6.65099C5.61099 6.93366 5.88833 7.19499 6.17099 7.43499C6.44833 7.66966 6.67766 7.82966 6.85899 7.92566C6.88566 7.93633 6.91766 7.95233 6.95499 7.96833C6.99766 7.98433 7.04033 7.98966 7.08833 7.98966C7.17899 7.98966 7.24833 7.95766 7.30699 7.89899L7.71233 7.49899C7.84566 7.36566 7.97366 7.26433 8.09633 7.20033C8.21899 7.12566 8.34166 7.08833 8.47499 7.08833C8.57632 7.08833 8.68299 7.10966 8.80033 7.15766C8.91766 7.20566 9.04033 7.27499 9.17366 7.36566L10.939 8.61899C11.0777 8.71499 11.1737 8.82699 11.2323 8.96033C11.2857 9.09366 11.3177 9.22699 11.3177 9.37633Z" stroke="#2F2F2F" stroke-miterlimit="10"/>
</svg>
