<svg width="30" height="30" viewBox="0 0 30 30" fill="none" xmlns="http://www.w3.org/2000/svg">
<rect width="30" height="30" rx="15" fill="#1E88E5"/>
<g clip-path="url(#clip0_4_5880)">
<path d="M14.8282 20.0261H15.7842C15.7842 20.0261 16.0732 19.9941 16.2202 19.8351C16.3562 19.6891 16.3512 19.4151 16.3512 19.4151C16.3512 19.4151 16.3322 18.1321 16.9282 17.9431C17.5152 17.7571 18.2692 19.1831 19.0682 19.7321C19.6722 20.1471 20.1312 20.0561 20.1312 20.0561L22.2682 20.0261C22.2682 20.0261 23.3862 19.9571 22.8562 19.0781C22.8132 19.0061 22.5472 18.4281 21.2672 17.2401C19.9272 15.9961 20.1072 16.1981 21.7212 14.0471C22.7042 12.7371 23.0972 11.9371 22.9742 11.5951C22.8572 11.2691 22.1342 11.3551 22.1342 11.3551L19.7302 11.3691C19.7302 11.3691 19.5522 11.3451 19.4192 11.4241C19.2902 11.5021 19.2072 11.6821 19.2072 11.6821C19.2072 11.6821 18.8262 12.6961 18.3182 13.5581C17.2472 15.3771 16.8182 15.4731 16.6432 15.3601C16.2362 15.0971 16.3382 14.3021 16.3382 13.7381C16.3382 11.9751 16.6052 11.2401 15.8172 11.0501C15.5552 10.9871 15.3632 10.9451 14.6942 10.9381C13.8362 10.9291 13.1092 10.9411 12.6982 11.1421C12.4242 11.2761 12.2132 11.5751 12.3422 11.5921C12.5012 11.6131 12.8612 11.6891 13.0522 11.9491C13.2992 12.2841 13.2902 13.0381 13.2902 13.0381C13.2902 13.0381 13.4322 15.1131 12.9592 15.3711C12.6342 15.5481 12.1892 15.1871 11.2342 13.5361C10.7452 12.6911 10.3752 11.7561 10.3752 11.7561C10.3752 11.7561 10.3042 11.5821 10.1772 11.4891C10.0232 11.3761 9.80722 11.3401 9.80722 11.3401L7.52122 11.3541C7.52122 11.3541 7.17822 11.3641 7.05222 11.5131C6.94022 11.6461 7.04322 11.9201 7.04322 11.9201C7.04322 11.9201 8.83322 16.1071 10.8592 18.2181C12.7182 20.1531 14.8282 20.0261 14.8282 20.0261Z" fill="white"/>
</g>
<defs>
<clipPath id="clip0_4_5880">
<rect width="16" height="9" fill="white" transform="translate(7 11)"/>
</clipPath>
</defs>
</svg>
