<svg width="30" height="30" viewBox="0 0 30 30" fill="none" xmlns="http://www.w3.org/2000/svg">
<g id="Youtube" clip-path="url(#clip0_4_5878)">
<path id="Vector" d="M17.4046 14.7496L14.0356 13.1776C13.7416 13.0411 13.5001 13.1941 13.5001 13.5196V16.4806C13.5001 16.8061 13.7416 16.9591 14.0356 16.8226L17.4031 15.2506C17.6986 15.1126 17.6986 14.8876 17.4046 14.7496ZM15.0001 0.600098C7.0471 0.600098 0.600098 7.0471 0.600098 15.0001C0.600098 22.9531 7.0471 29.4001 15.0001 29.4001C22.9531 29.4001 29.4001 22.9531 29.4001 15.0001C29.4001 7.0471 22.9531 0.600098 15.0001 0.600098ZM15.0001 20.8501C7.6291 20.8501 7.5001 20.1856 7.5001 15.0001C7.5001 9.8146 7.6291 9.1501 15.0001 9.1501C22.3711 9.1501 22.5001 9.8146 22.5001 15.0001C22.5001 20.1856 22.3711 20.8501 15.0001 20.8501Z" fill="#DE3131"/>
</g>
<defs>
<clipPath id="clip0_4_5878">
<rect width="30" height="30" fill="white"/>
</clipPath>
</defs>
</svg>
