<svg width="12" height="12" fill="none" xmlns="http://www.w3.org/2000/svg"><path d="M11.318 9.376c0 .192-.043.39-.134.582a2.2 2.2 0 01-.362.544c-.262.288-.55.496-.875.629-.32.133-.667.203-1.04.203-.544 0-1.125-.128-1.739-.39a9.366 9.366 0 01-1.834-1.056 15.332 15.332 0 01-1.75-1.493 15.152 15.152 0 01-1.488-1.744 9.508 9.508 0 01-1.045-1.819C.795 4.224.667 3.643.667 3.088c0-.362.064-.709.192-1.029.128-.325.33-.624.613-.89.342-.337.715-.502 1.11-.502.149 0 .298.032.432.096a.87.87 0 01.357.299l1.237 1.744c.096.133.166.256.214.373a.843.843 0 01.074.325.724.724 0 01-.112.379c-.069.123-.17.25-.298.379l-.406.421a.285.285 0 00-.085.213c0 .043.005.08.016.123.016.043.032.075.043.107.096.176.261.405.496.682.24.278.496.56.773.843.288.283.565.544.848.784.277.235.507.395.688.49l.096.043a.368.368 0 00.133.022c.091 0 .16-.032.219-.091l.405-.4c.134-.133.262-.235.384-.299a.71.71 0 01.379-.112c.101 0 .208.022.325.07.118.048.24.117.374.208l1.765 1.253a.808.808 0 01.293.341c.054.134.086.267.086.416z" stroke="#2F2F2F" stroke-miterlimit="10"/></svg>