<svg width="84" height="84" viewBox="0 0 84 84" fill="none" xmlns="http://www.w3.org/2000/svg">
<path d="M77.4321 67.2051C77.7483 66.482 78.0004 65.717 78.2378 64.9884C78.3751 64.6202 78.8375 63.749 78.4955 63.948C77.8248 64.3737 77.305 64.9342 76.937 65.6307C76.5398 65.7247 76.2157 65.9303 75.9648 66.2476C75.7161 66.5483 75.4967 66.8679 75.3099 67.2095C75.1006 67.5257 74.8598 67.8176 74.5898 68.0851C74.4379 68.2399 74.2736 68.3947 74.1037 68.5472C73.9349 68.7009 73.7447 68.8314 73.5534 68.9596C73.2136 69.2051 72.8558 69.4218 72.4788 69.6086C72.2414 69.7214 71.9916 69.7899 71.7294 69.8142C72.7737 68.8126 73.783 67.7733 74.7586 66.6976C75.2525 66.7087 75.3864 66.1625 75.6182 65.7932C75.8624 65.4284 76.1415 65.0923 76.4554 64.7849C76.5995 64.6324 76.7244 64.4676 76.8313 64.2896C76.9246 64.1282 76.9663 63.9547 76.955 63.7689C76.9291 63.4837 76.9719 63.2084 77.0844 62.9442C77.1193 62.8756 77.1508 62.8049 77.1778 62.733C77.2994 62.4953 77.4344 62.2653 77.584 62.0442C77.7956 61.6252 77.97 61.1918 78.1073 60.7441C78.0173 60.7861 77.9317 60.8358 77.8518 60.8944C77.7258 60.9961 77.602 61.1255 77.476 61.2416C77.5053 61.0779 77.5368 60.911 77.5559 60.7551C77.5638 60.6667 77.5672 60.5782 77.5638 60.4898C77.5863 60.4876 77.6077 60.4798 77.6257 60.4666C77.8102 60.3284 77.9846 60.1791 78.1478 60.0166C78.3042 59.8485 78.4448 59.6683 78.5686 59.476C78.8387 59.0614 79.0007 58.6103 79.0558 58.1216C79.093 57.5954 79.2089 57.5036 79.5678 57.6031C79.5003 57.4129 79.4902 57.2206 79.5386 57.0249C79.587 56.8292 79.6848 56.6623 79.8323 56.523C79.9425 56.3538 80.0067 56.1692 80.0247 55.9702C80.0325 55.8076 79.9392 55.7104 79.8829 55.5954C79.776 55.7601 79.6792 55.9293 79.5903 56.1028C79.3214 56.691 79.0322 57.2725 78.7318 57.8452C78.7847 57.6661 78.8679 57.5014 78.9827 57.3521C79.1099 56.9055 79.2449 56.398 79.3687 55.8883C78.7937 56.4035 78.5079 57.3389 78.0881 58.1338C77.5469 59.1465 78.374 58.2233 78.2569 58.6302C78.2772 58.6236 78.2963 58.6147 78.3154 58.6025C78.1106 58.9619 77.9059 59.3245 77.7123 59.6761C77.5897 59.927 77.4929 60.1868 77.4243 60.4566C77.4243 60.4566 77.467 60.482 77.5188 60.4876C77.4445 60.5893 77.3624 60.6844 77.2723 60.7728C77.0856 60.9431 76.9348 61.1399 76.8211 61.3632C76.7592 61.4605 76.7041 61.5799 76.6591 61.6761L76.6276 61.6893C76.6681 61.6009 76.712 61.5124 76.7536 61.4229C76.8571 61.1973 77.027 60.6788 76.7806 60.9961C76.5589 61.2847 76.3271 61.5854 76.1055 61.874C75.8838 62.1625 75.6216 62.4433 75.3932 62.7253C75.3988 62.6755 75.4135 62.6291 75.4393 62.586C76.0672 61.5854 76.6715 60.565 77.2285 59.5235L77.4051 59.1388L77.5402 58.8955C77.898 58.1946 78.1973 57.466 78.5067 56.7441C78.6609 56.4091 78.788 56.052 78.9163 55.7181L79.3079 54.6833L79.6511 53.6374C79.7659 53.2869 79.884 52.9387 79.9752 52.5849C80.0888 52.2764 80.0899 52.0785 79.9155 52.0365C79.9414 51.6462 80.0674 51.2902 80.2925 50.9674C80.3217 50.9221 80.351 50.8757 80.3802 50.8281C80.2869 51.3323 80.1833 51.8364 80.0674 52.3383C79.9875 52.6988 79.9819 52.942 80.1529 52.9309C80.2396 52.9265 80.3994 52.9331 80.414 52.8878C81.0666 50.7684 81.6585 48.5285 81.7103 46.3759C81.7125 45.5324 81.6686 45.1311 81.6698 44.8735C81.6495 44.6358 81.7148 44.4246 81.8644 44.2366C81.8959 44.1847 81.9162 44.1272 81.9241 44.0664C82.049 42.2831 82.1322 40.4699 81.7407 38.6933C81.6911 38.3749 81.6248 38.0476 81.5606 37.7204C81.5584 37.3832 81.5482 37.046 81.5314 36.7043C81.5145 36.3638 81.4605 36.0288 81.4155 35.6905C81.3243 35.0117 81.1972 34.3395 81.034 33.6728C80.953 33.3367 80.8607 33.0161 80.7594 32.6789C80.6582 32.3406 80.5738 32.0134 80.4511 31.6916C80.2182 31.0415 79.9965 30.387 79.7231 29.7513L79.6871 29.6209C79.4531 28.9034 79.1627 28.1903 78.8904 27.4783C78.7464 27.1245 78.5832 26.7773 78.4325 26.4269L78.2007 25.9017L77.9407 25.3821C77.7888 25.046 77.6133 24.7232 77.4141 24.4125C77.2082 24.1118 76.9843 23.8243 76.7682 23.5347L76.119 22.6613C75.9007 22.3594 75.7105 22.041 75.5485 21.706L75.0343 20.9454L74.8981 20.7199L74.6224 20.3572L74.3479 20.0101L73.7627 19.3102C73.3723 18.8426 72.9526 18.4015 72.561 17.9349C70.8214 15.9858 68.9017 14.2257 66.8032 12.6558C66.9348 12.9686 66.9843 13.2063 66.8954 13.3158C66.9843 13.2063 66.9348 12.9686 66.8032 12.6558L66.3441 12.2976C66.1888 12.1804 66.029 12.072 65.8703 11.9559C65.5541 11.7326 65.2357 11.5082 64.9094 11.2959C62.8558 10.009 60.7055 8.71326 58.3538 8.12399C57.8609 7.68397 57.1588 7.48275 56.4544 7.32465L54.9207 6.80724C54.7665 6.7597 54.6067 6.72875 54.4492 6.69116L53.0168 6.31305C52.3236 6.13505 51.6294 5.95373 50.9295 5.79121L49.7322 5.3921L50.135 5.3932C50.5064 5.45512 50.8777 5.5104 51.249 5.58226L52.3563 5.82106C53.0967 5.96147 53.8168 6.17927 54.5493 6.33516C56.6344 6.84041 58.6576 7.52476 60.6177 8.38601C62.8986 9.4142 65.1581 10.6005 67.1779 12.1428C67.5278 12.4247 67.9205 12.6701 68.2952 12.9498C68.6699 13.2284 69.0626 13.4949 69.4452 13.7602C70.162 14.2688 70.8236 14.8393 71.429 15.4717C72.6195 16.7818 73.4274 17.5181 74.5178 18.2622C74.5572 18.3008 74.5965 18.3451 74.6348 18.3882C74.8362 18.6823 75.0309 19.0018 75.23 19.3036C75.3279 19.4551 75.4303 19.5999 75.5406 19.7414C75.6329 19.8763 75.733 20.0034 75.841 20.1251C75.9018 20.2024 75.9727 20.2699 76.0537 20.3263C76.1347 20.3827 76.2236 20.4247 76.3181 20.4545C76.4127 20.4844 76.5106 20.4987 76.6096 20.4987C76.7097 20.4987 76.8065 20.4833 76.901 20.4534C77.0777 20.4247 77.251 20.4346 77.422 20.4811C77.6167 20.5275 77.8136 20.5949 78.0037 20.6414C78.069 20.7364 78.1264 20.8359 78.1759 20.941C77.9959 21.0935 77.8665 21.36 77.5874 21.318C77.3095 21.2771 77.2093 21.2129 77.5627 21.7171L77.2015 21.8697C77.4378 22.1538 77.6909 22.4888 77.9014 22.7221C78.2355 23.0747 78.581 23.214 78.9017 23.8453C79.884 25.7956 80.926 27.6607 81.8903 29.4108C82.0343 29.6474 82.2166 30.2898 82.4709 30.7055C82.7252 31.1212 83.0077 31.3179 83.3452 30.6281C83.298 31.0283 83.2563 31.2958 83.2203 31.4982L83.1382 31.9691C83.2901 32.2522 83.4128 32.5451 83.5061 32.8514C83.6085 33.1554 83.7244 33.3754 83.882 33.1853C83.9675 33.0614 84.0069 32.9255 83.999 32.7751C83.99 32.5871 83.9596 32.4014 83.9079 32.2201C83.7987 31.8199 83.6299 31.3754 83.5016 31.0017C83.0223 29.6353 82.4315 28.3251 81.8386 27.0139C80.1271 23.0825 77.844 19.5048 74.987 16.2821C74.7642 16.0211 74.5279 15.7735 74.2882 15.5314L73.5782 14.7962C73.0898 14.3163 72.5846 13.8487 72.0839 13.3821L70.944 12.2721C70.71 12.0698 70.4714 11.8763 70.2306 11.6873C68.1748 10.0864 66.0166 8.47114 63.6007 7.55793C63.4117 7.41973 63.2305 7.27601 63.0404 7.14334C62.8513 7.01177 62.6465 6.88242 62.4451 6.7597C62.2437 6.63809 62.0378 6.51316 61.8161 6.41034C61.5911 6.29425 61.3581 6.20028 61.114 6.12952L60.1373 5.76579C59.8143 5.64749 59.4914 5.51814 59.1583 5.41974C58.3436 5.09028 57.5076 4.78624 56.6783 4.51316C56.487 4.39818 56.2451 4.27104 55.9469 4.12621L55.4957 3.91283L54.9871 3.71162C54.6337 3.57563 54.2579 3.43743 53.8742 3.30255C53.711 3.24617 53.5468 3.19531 53.387 3.14777C53.7819 3.2318 54.1758 3.32135 54.5696 3.42085L55.6093 3.47502L54.5696 3.42085L55.6915 3.69503L56.7964 4.02118L57.0665 4.09857C57.7698 4.37828 58.32 4.4612 58.5901 4.30531C58.7847 4.19586 58.4134 3.93052 57.9419 3.72046L57.5222 3.52588C57.6921 3.53141 57.8632 3.53362 58.0308 3.54578L58.5372 3.58227C59.0289 3.62428 60.0067 3.8277 59.7074 3.51704C59.3811 3.18868 59.0109 2.91671 58.5968 2.70333C58.059 2.43799 57.4941 2.25115 56.9011 2.1428L56.2665 1.93385L55.6161 1.76138L54.322 1.40427C53.8922 1.28708 53.4534 1.19974 53.0168 1.09692C52.5813 0.994103 52.156 0.889073 51.7047 0.814999C50.8271 0.662429 49.9528 0.484431 49.0638 0.389351C48.6216 0.334072 48.1816 0.272159 47.7372 0.224619L46.4026 0.118484L45.7331 0.0665215L45.0636 0.0410932L43.7235 0.00129234C43.2767 -0.005341 42.8368 0.0156649 42.3822 0.0167705C41.9276 0.0189818 41.4977 0.0278262 41.0375 0.0665215C40.4231 0.114061 39.7908 0.133962 39.1707 0.184819L37.3085 0.377189L37.2849 0.388245L36.4454 0.476692C34.4661 0.75972 32.515 1.17652 30.5942 1.726L30.2915 1.83103L29.2462 2.17818C28.8861 2.28542 28.5609 2.43688 28.2143 2.56403L27.0407 3.00405L25.8806 3.50045C25.0974 3.81554 24.3536 4.20471 23.5952 4.56844C23.2149 4.74644 22.8515 4.95871 22.4813 5.15661L21.3718 5.768L20.3028 6.43245C19.945 6.65357 19.5815 6.8592 19.2372 7.10575C18.7218 7.46064 17.9263 7.7503 17.9443 8.23344C17.6034 8.49325 17.223 8.69668 16.863 8.93106C16.4826 9.14997 16.1676 9.43852 15.9189 9.79783C15.4452 10.0864 14.9658 10.3506 14.4977 10.6635C14.0105 11.014 13.5885 11.4308 13.2352 11.9128C12.883 12.1848 12.5454 12.4744 12.2247 12.7818C11.9063 13.0792 11.5878 13.381 11.2863 13.695C10.9836 14.0101 10.7068 14.3517 10.43 14.6911C10.1453 15.025 9.88087 15.3744 9.63781 15.7392L8.98405 16.5485C8.76463 16.8183 8.54634 17.0891 8.34604 17.37C7.93983 17.9327 7.51112 18.4822 7.12854 19.0582L6.90687 19.664L7.31083 19.3843L7.32658 19.36C7.36034 19.4927 7.40085 19.6143 7.42898 19.7558C7.40085 19.6143 7.36034 19.4927 7.32658 19.36L7.31083 19.3843L6.90687 19.664L6.22272 20.6248C5.95154 21.056 5.70061 21.4993 5.44069 21.9371L5.05135 22.5993L4.69015 23.287L3.98351 24.6425L3.34325 26.0311C3.23185 26.2544 3.1362 26.4843 3.05969 26.722C2.9933 26.9487 2.94266 27.1687 2.8999 27.3821C2.81664 27.8122 2.766 28.2245 2.68386 28.6579C2.50157 29.0051 2.34516 29.3622 2.17638 29.7149C1.94345 29.6198 1.8118 30.0686 1.69478 30.5297C1.57775 30.9918 1.51024 31.5556 1.41797 32.0631C1.34033 32.5451 1.23681 33.0227 1.10515 33.4937C0.939743 34.0233 0.795713 34.5606 0.682064 35.1012C0.56729 35.6419 0.498651 36.1902 0.422135 36.7331L0.362497 37.141L0.321989 37.5501L0.240972 38.3649L0.152078 39.1742L0.0710612 39.9879C0.0260518 40.7253 0.0260519 41.4627 0.0733117 42.1991C0.0890651 42.5661 0.100317 42.9354 0.0969416 43.3091C0.0924407 43.6839 0.104818 44.062 0.0744369 44.4467C0.0440555 44.8303 -0.00320414 45.2317 0.000171353 45.6418C-0.00207897 46.0509 0.075562 46.4467 0.230845 46.8259L0.278105 46.6623L0.270228 46.6744L0.39963 47.0227L0.443514 47.6861L0.516654 48.3483L0.665186 49.6695L0.875605 50.9851C0.945369 51.424 1.01513 51.864 1.11415 52.2974C1.11303 52.6645 1.22105 52.9984 1.43822 53.2969C1.52824 53.4517 1.60026 53.6142 1.65539 53.7855C1.72403 53.9901 1.74541 54.2001 1.72066 54.4135C1.68352 54.9033 1.73866 55.3831 1.88269 55.853C2.05598 56.3604 2.27765 56.8458 2.54883 57.309C2.89653 58.7231 3.33312 60.1404 4.23106 60.2698L4.37171 60.5594C4.4516 60.9729 4.26706 61.0713 4.52699 61.7523C5.27303 63.6749 6.38138 65.3676 7.57188 67.005L7.8757 67.4538L7.90608 67.3775L8.09512 67.6628C8.27628 68.0597 8.44169 68.4765 8.6296 68.8778C11.4618 72.4599 14.7273 75.6086 18.4248 78.325C18.5024 78.597 18.6712 78.7949 18.93 78.9187C19.0549 78.9939 19.1933 79.058 19.334 79.1232C19.4746 79.1873 19.6164 79.2415 19.7481 79.3067C20.2578 79.5964 20.7439 79.9214 21.2052 80.2819C21.6947 80.6014 22.1696 80.8656 22.6073 80.8435C22.9786 80.8369 23.3387 80.8944 23.6886 81.0138C24.1241 81.1597 24.5461 81.3366 24.9534 81.5478C25.507 81.8308 26.145 81.9292 26.7391 82.105C26.6604 82.011 26.5737 81.9225 26.4803 81.8418C26.3149 81.7136 26.1169 81.5876 25.9312 81.4582C26.1484 81.4858 26.3734 81.5179 26.5782 81.5356C26.7279 81.5455 26.8562 81.5367 26.9923 81.5389C26.8168 81.4449 26.6469 81.3432 26.4837 81.2305C25.9796 80.8678 25.264 80.6102 24.5854 80.3349C23.9069 80.0596 23.297 79.707 23.0562 79.173C23.2712 79.1697 23.4816 79.2006 23.6875 79.2669L24.2175 79.5367L24.7599 79.781L25.8446 80.2774C26.2035 80.451 26.5782 80.5859 26.9451 80.7363L28.05 81.1818C28.229 81.2459 28.4135 81.2979 28.5935 81.3554L28.9424 81.4892C29.4487 81.6484 29.9449 81.8308 30.4569 81.9712L31.9884 82.3891C32.4688 82.5218 32.9583 82.6191 33.4422 82.734L34.1747 82.8899C34.4189 82.9397 34.6631 82.9795 34.9095 83.0248C35.399 83.1077 35.8862 83.2017 36.3779 83.278L37.8542 83.4648C38.2908 83.5533 38.5687 83.5256 38.5597 83.3421C39.0852 83.3012 39.5938 83.3742 40.0844 83.5599C40.5987 83.7368 41.1275 83.8264 41.6721 83.8286C42.8593 83.802 44.0779 83.76 45.2808 83.6716H45.4766L45.4721 83.655L45.4766 83.6716L46.5107 83.6362C47.2241 83.6406 47.933 83.5809 48.6351 83.4582C49.3496 83.3443 50.0687 83.2691 50.7911 83.2304C51.3053 83.215 51.8139 83.1531 52.3157 83.0436C52.8289 82.9397 53.351 82.838 53.8551 82.7152L54.6574 82.6257C55.0343 82.5229 55.4146 82.4256 55.7871 82.3029C56.397 82.1713 57.0125 82.0574 57.6201 81.9082L59.2292 81.2935C59.8334 81.1199 60.4197 80.8999 60.9891 80.6334C61.5494 80.3736 62.0873 80.0807 62.6432 79.8606C63.0257 79.718 63.3937 79.5455 63.765 79.3886C64.1363 79.2305 64.5054 79.0602 64.87 78.8866C65.2335 78.7119 65.5857 78.5052 65.9322 78.3018C66.2855 78.1039 66.6231 77.885 66.9472 77.644C67.6538 77.1796 68.3594 76.7219 69.0334 76.2122C69.3709 75.9579 69.7164 75.7191 70.0427 75.456L71.0217 74.66C71.1747 74.5273 71.3289 74.3991 71.4774 74.2653L71.9162 73.8496L72.0918 73.6871C72.0299 73.6948 71.9815 73.6738 71.9477 73.623C71.9815 73.6738 72.0299 73.6948 72.0918 73.6871C72.435 73.3631 72.7984 73.0591 73.127 72.7175C73.4555 72.3759 73.7886 72.0453 74.1037 71.7004C74.8812 70.8104 75.5474 69.8651 76.2866 68.9574C76.7919 68.3858 77.3781 67.843 77.4321 67.2051ZM77.979 22.1538L77.5627 21.7226L77.9317 21.9459L77.979 22.1538ZM72.0366 73.2194C72.0186 73.2581 72.0029 73.2968 71.9894 73.3377C72.0029 73.2968 72.0186 73.2581 72.0366 73.2194C72.0603 73.1818 72.0715 73.1365 72.0906 73.0967C72.0693 73.1442 72.0456 73.1818 72.0333 73.2261L72.0366 73.2194ZM55.822 3.20637C55.7308 3.2119 55.6566 3.24949 55.6014 3.32024C55.6566 3.24949 55.7308 3.2119 55.822 3.20637ZM61.2017 14.3904C60.9542 14.2787 60.6943 14.2268 60.4208 14.2345C60.3252 14.2412 60.2374 14.2699 60.1564 14.3219C60.2374 14.2699 60.3252 14.2412 60.4208 14.2345C60.6943 14.2268 60.9542 14.2787 61.2017 14.3904L61.474 14.5386L61.2017 14.3904ZM56.9652 14.9134L56.6006 14.7663L56.9652 14.9134ZM55.508 14.1627L55.328 14.114C55.2335 14.2036 55.121 14.2401 54.9904 14.2235C55.121 14.2401 55.2335 14.2036 55.328 14.114L55.508 14.1627C55.6138 14.0311 55.7849 14.0433 55.9761 14.1118C55.7849 14.0433 55.6138 14.0311 55.508 14.1627ZM55.8647 16.3926C55.7691 16.3583 55.6723 16.3252 55.5778 16.2997C55.4 16.2434 55.2189 16.2345 55.0354 16.2732C54.8847 16.2334 54.726 16.2069 54.5718 16.1737C54.726 16.2069 54.8847 16.2334 55.0354 16.2732C55.2189 16.2345 55.4 16.2434 55.5778 16.2997C55.6723 16.3252 55.7691 16.3583 55.8647 16.3926L56.1539 16.5043L55.8647 16.3926ZM53.1439 15.7492L53.3138 15.8089C53.369 15.842 53.4219 15.8741 53.4691 15.9261C53.4117 15.8907 53.3588 15.8586 53.3138 15.8089L53.1439 15.7492ZM54.1049 15.2572C54.0025 15.2284 53.9046 15.2395 53.8123 15.2904C53.9046 15.2395 54.0025 15.2284 54.1049 15.2572C54.2692 15.3069 54.4166 15.3876 54.5471 15.4993C54.4177 15.3832 54.2692 15.2992 54.1026 15.2472L54.1049 15.2572ZM53.3971 15.6663C53.5186 15.5767 53.6098 15.4352 53.7279 15.3401C53.6165 15.4252 53.5243 15.5679 53.3971 15.6663ZM52.6263 15.2229C52.4339 15.3467 52.228 15.3755 52.0086 15.3058C52.2347 15.3733 52.444 15.3401 52.6364 15.2063L52.8885 15.2693L52.6263 15.2229ZM52.5779 15.6452L52.552 15.6475L52.5779 15.6452ZM46.2136 13.2815C46.2035 13.2981 46.1821 13.3092 46.1686 13.3213C46.1495 13.3114 46.1303 13.3003 46.1135 13.287C46.1135 13.287 46.1281 13.2649 46.1292 13.2627C46.1303 13.2605 46.1978 13.266 46.2203 13.2716L46.2136 13.2815ZM35.3404 13.3611C35.372 13.4042 35.3866 13.4518 35.3866 13.5048C35.3866 13.5568 35.3708 13.6055 35.3393 13.6475C35.3056 13.6994 35.2673 13.747 35.2234 13.7901C35.2673 13.747 35.3056 13.6994 35.3393 13.6475C35.3708 13.6055 35.3866 13.5568 35.3866 13.5048C35.3866 13.4518 35.372 13.4042 35.3404 13.3611C35.3213 13.3324 35.2977 13.3081 35.2696 13.287L35.4935 13.0195L35.2696 13.287C35.2977 13.3036 35.3224 13.3246 35.3449 13.349L35.3404 13.3611ZM13.9193 34.3826C13.8901 34.387 13.8608 34.3937 13.8327 34.4047C13.8608 34.3937 13.8901 34.387 13.9193 34.3826ZM13.3117 37.6828C13.3342 37.7016 13.3522 37.7237 13.368 37.748C13.3623 37.7712 13.3545 37.7933 13.3432 37.8143C13.3185 37.8033 13.2948 37.7889 13.2735 37.7723C13.2993 37.7358 13.3106 37.7137 13.3207 37.6883L13.3117 37.6828ZM13.8057 48.5838C13.7854 48.6579 13.7596 48.7286 13.7269 48.7983C13.7618 48.7308 13.7911 48.6612 13.8136 48.5893L13.8057 48.5838ZM13.674 48.8867C13.6392 48.9387 13.5986 48.984 13.5514 49.026C13.6009 48.9862 13.6448 48.942 13.6819 48.8922L13.674 48.8867ZM18.0343 57.6296C18.1255 57.7756 18.1457 57.9304 18.0951 58.0951L18.2999 58.3018C18.355 58.3814 18.4068 58.4621 18.4439 58.5384C18.3966 58.4555 18.3438 58.3748 18.2999 58.3018L18.0951 58.0951C18.1457 57.9304 18.1255 57.7756 18.0343 57.6296C17.8633 57.3046 17.4908 57.0127 17.5077 56.649L17.268 56.2565C16.9023 56.3372 16.5164 56.1172 16.261 55.6838C16.1912 55.571 16.1304 55.4528 16.0798 55.33C16.1304 55.4528 16.1912 55.571 16.261 55.6838C16.5119 56.1238 16.9023 56.3372 17.268 56.2565L17.5077 56.649C17.5055 57.0072 17.8723 57.309 18.0422 57.6341L18.0343 57.6296ZM23.9531 64.5074L24.0971 64.6324L24.141 64.7617L24.0971 64.6324L23.9531 64.5074L23.5502 64.0851C23.4973 64.0531 23.4535 64.0066 23.4051 63.9657C23.1789 63.9812 22.9527 64.0022 22.7164 64.0066C22.9527 64.0022 23.1789 63.9812 23.4073 63.9635C23.4523 64.0077 23.4996 64.0475 23.5502 64.0851L23.9531 64.5074ZM76.5432 31.3135C76.5679 31.3025 76.5938 31.2991 76.6197 31.3025C76.6591 31.308 76.6951 31.319 76.73 31.3378C76.6951 31.319 76.6591 31.308 76.6197 31.3025C76.5938 31.2991 76.5679 31.3025 76.5432 31.3135ZM16.684 74.2299C16.7594 74.1746 16.9372 74.2454 17.1443 74.3902C16.9383 74.2487 16.7617 74.1757 16.684 74.2299ZM17.8419 75.1033C17.8419 75.1033 17.8453 75.1022 17.8442 75.1044L17.8419 75.1033ZM17.8419 75.1033C17.8329 75.1199 17.8194 75.131 17.8003 75.1354C17.8183 75.1321 17.8329 75.1221 17.8419 75.1066V75.1033ZM56.8797 12.5739L56.9382 12.6093L56.8797 12.5739ZM56.8246 12.5032C56.8234 12.4899 56.8234 12.4767 56.8257 12.4634C56.8347 12.4346 56.8471 12.4081 56.8617 12.3816C56.8471 12.4081 56.8347 12.4346 56.8257 12.4634C56.8234 12.4767 56.8234 12.4899 56.8246 12.5032ZM51.8488 10.7619C51.8409 10.7719 51.8341 10.7829 51.8285 10.7951C51.8341 10.7829 51.8409 10.7719 51.8488 10.7619C51.8634 10.7497 51.878 10.7387 51.8938 10.7287C51.878 10.7387 51.8634 10.7497 51.8488 10.7619ZM55.6453 12.7729C55.6419 12.7995 55.6464 12.8249 55.6566 12.8481C55.6464 12.8216 55.6431 12.7951 55.6498 12.7663L55.6453 12.7729ZM51.6159 12.3462C51.6867 12.271 51.7486 12.1947 51.8116 12.114C51.752 12.1903 51.689 12.2677 51.6181 12.3429L51.6159 12.3462ZM52.6342 13.6508L52.8952 13.8089L53.6503 14.3495L52.8952 13.8089L52.6342 13.6508ZM54.7519 11.8841L54.2343 11.7768L54.7519 11.8841C54.8025 11.7945 54.8757 11.7282 54.9713 11.6873C55.0669 11.6453 55.166 11.6364 55.2672 11.6607C55.166 11.6364 55.0669 11.6453 54.9713 11.6873C54.8757 11.7282 54.8025 11.7945 54.7519 11.8841ZM52.0423 10.6491L52.1065 10.6182L52.0423 10.6491ZM40.0203 11.6265C40.0327 11.6596 40.0484 11.6895 40.0687 11.7182C40.0923 11.7558 40.1204 11.7901 40.1486 11.8277C40.1204 11.7901 40.0923 11.7558 40.0687 11.7182C40.0507 11.6873 40.0383 11.6552 40.0304 11.6209L40.0203 11.6265ZM20.466 22.0797C20.4176 22.1571 20.314 22.2577 20.2499 22.3406L20.0935 22.5905L20.2499 22.3406C20.3197 22.2621 20.4142 22.1637 20.466 22.0797ZM21.1602 63.3024L21.4528 63.707L21.1602 63.3024C20.7866 62.9641 20.1925 62.7595 20.1419 62.2056C20.1093 61.8983 20.4378 62.0055 20.6809 62.0973C20.8238 62.1526 20.9453 62.2366 21.0466 62.3505C21.1636 62.6899 21.6407 63.1852 21.1602 63.3024ZM76.6906 57.7081C76.6748 57.7336 76.6591 57.7579 76.6433 57.7833C76.6591 57.7579 76.6748 57.7336 76.6906 57.7081C76.7007 57.7568 76.7154 57.8087 76.73 57.8607L76.7739 58.0232L76.73 57.8607C76.7154 57.8087 76.7007 57.7568 76.6906 57.7081ZM40.7877 8.20691L40.9194 8.79507L41.1399 8.94654C41.1714 8.95096 41.2029 8.94985 41.2333 8.94212L41.5461 8.69447C41.6958 8.45677 41.9051 8.46893 42.1324 8.52089C41.9051 8.46893 41.6868 8.45234 41.5484 8.69668L41.2356 8.94433C41.204 8.95096 41.1737 8.95207 41.1422 8.94764L40.9205 8.79618L40.79 8.20801L40.7877 8.20691ZM49.7907 73.1387L49.7165 73.2006L49.7907 73.1387ZM49.5837 73.1652C49.5994 73.173 49.6163 73.1785 49.6343 73.1818C49.6141 73.1774 49.5949 73.1708 49.5769 73.1619L49.5837 73.1652ZM36.9315 9.40757L36.8246 9.40867L36.9315 9.40757ZM28.2796 12.9034C28.6419 12.7343 28.8107 12.7044 28.8805 12.7464C28.8107 12.7044 28.6374 12.732 28.2796 12.9034ZM23.9159 14.8647C24.0093 14.9012 24.0206 14.962 23.7685 15.1002L23.8079 15.1068L23.7685 15.1002C24.0161 14.9708 24.0048 14.9089 23.9103 14.8724L23.9159 14.8647ZM16.6075 24.585L16.666 24.5606C16.7234 24.5441 16.7842 24.5308 16.8416 24.5142C16.7842 24.5308 16.7234 24.5441 16.666 24.5606L16.6075 24.585ZM23.4996 14.6414C23.5052 14.616 23.5153 14.5916 23.5277 14.5684C23.512 14.5938 23.5018 14.6204 23.4951 14.6491L23.4996 14.6414ZM19.9078 17.8863C19.8617 17.9449 19.8234 18.0079 19.7897 18.0742C19.8223 18.0112 19.8595 17.9515 19.9022 17.8951L19.9078 17.8863ZM19.6333 18.5021L19.6974 18.3141L19.6333 18.5021ZM20.2218 17.5911C20.1273 17.5535 20.0305 17.5479 19.9315 17.5756C19.8336 17.6021 19.7526 17.6552 19.6907 17.7348C19.7526 17.6552 19.8336 17.6021 19.9326 17.5745C20.0305 17.5479 20.1284 17.5524 20.224 17.5889L20.2218 17.5911ZM17.8813 21.4153L17.8925 21.3987L17.8813 21.4153C17.7868 21.0206 17.6956 20.6204 17.6101 20.2157C17.6934 20.6237 17.7823 21.0272 17.8768 21.4241L17.8813 21.4153ZM10.3366 50.6059L10.2544 50.6678L10.3366 50.6059ZM16.6537 22.8127L16.6672 22.8437L16.6537 22.8127ZM13.8867 25.3257C13.7798 25.5523 13.6887 25.7845 13.6133 26.0233C13.6887 25.7845 13.7798 25.5523 13.8867 25.3257ZM13.5356 26.1803C13.5514 26.1549 13.5671 26.1306 13.5829 26.1051C13.5593 26.1372 13.5458 26.1637 13.53 26.1892L13.5356 26.1803ZM13.5356 26.1803C13.494 26.2533 13.4411 26.3174 13.377 26.3727C13.4389 26.3196 13.4895 26.2588 13.53 26.1892L13.5356 26.1803ZM13.9407 24.9874C13.943 24.9288 13.9531 24.8713 13.9587 24.8116C13.9531 24.8713 13.943 24.9288 13.9407 24.9874ZM17.3344 22.376L17.3738 22.4202L17.3344 22.376ZM21.5586 16.4866C21.4539 16.5905 21.3796 16.7121 21.3358 16.8525C21.2919 16.9918 21.284 17.1334 21.311 17.2771C21.284 17.1367 21.2919 16.9985 21.3324 16.8614C21.374 16.7243 21.4438 16.6049 21.5439 16.501L21.5586 16.4866ZM21.5586 16.4866C21.5799 16.4656 21.6036 16.4479 21.6283 16.4313C21.5991 16.4501 21.5732 16.4722 21.5484 16.4976L21.5586 16.4866ZM12.0492 30.6203L12.1932 30.6612L12.0492 30.6203C11.9671 30.7707 11.9153 30.931 11.8917 31.1001C11.9153 30.931 11.9671 30.7707 12.0492 30.6203ZM20.1486 18.7663L19.8088 18.7906L20.1486 18.7663ZM20.1644 19.1466C20.1014 19.1687 20.0429 19.1975 19.9866 19.2351C20.044 19.1942 20.1048 19.1621 20.17 19.1389L20.1644 19.1466ZM9.96188 47.2317C9.87636 47.246 9.78747 47.256 9.70083 47.2637C9.78747 47.256 9.87636 47.246 9.96188 47.2317ZM9.61531 42.3494C9.62769 42.3251 9.63669 42.3008 9.64457 42.2753C9.66144 42.2079 9.67045 42.1405 9.6727 42.0708C9.67045 42.1405 9.66144 42.2079 9.64457 42.2753C9.63669 42.3008 9.62769 42.3251 9.61531 42.3494ZM9.49603 40.8182C9.55117 40.9055 9.62769 40.9641 9.72783 40.9962C9.62431 40.9652 9.54442 40.9044 9.48816 40.8138L9.49603 40.8182ZM10.1802 36.2864C10.2972 36.5418 10.3715 36.8083 10.4018 37.0858C10.3681 36.806 10.2916 36.5374 10.1712 36.282L10.1802 36.2864ZM11.0219 34.8094C11.0174 34.7143 11.0207 34.6203 11.032 34.5274C11.0174 34.6192 11.0117 34.711 11.014 34.8038L11.0219 34.8094ZM11.9468 31.7292C11.9378 31.6607 11.9254 31.5921 11.9142 31.5258C11.8962 31.3998 11.8917 31.2737 11.9029 31.1477C11.8917 31.2737 11.8962 31.3998 11.9142 31.5258C11.9254 31.5921 11.9378 31.6607 11.9468 31.7292C11.9693 31.8652 11.9817 32.0001 11.9839 32.1372C11.9794 31.999 11.9637 31.8608 11.9389 31.7248L11.9468 31.7292ZM12.5927 31.036L12.6264 31.057L12.5927 31.036ZM19.4724 20.3473L19.3756 20.1626L19.3385 20.114L18.7781 19.9493L19.3396 20.1118L19.3767 20.1604L19.4746 20.3451L19.4724 20.3473ZM23.8945 14.8658L23.8338 14.8459L23.8945 14.8658ZM28.2155 11.7591L27.9938 11.7956C27.9139 11.7315 27.861 11.6508 27.8362 11.5524C27.861 11.6508 27.9139 11.7315 27.9938 11.7956L28.2155 11.7591C28.2593 11.8122 28.3077 11.862 28.3595 11.9073C28.3111 11.8631 28.2661 11.8155 28.2233 11.7647L28.2155 11.7591ZM24.4335 15.5115L24.1376 15.7978L24.4335 15.5115ZM22.9674 17.2384C22.9156 17.224 22.8627 17.2152 22.8087 17.2119C22.8627 17.2152 22.9156 17.224 22.9674 17.2384ZM37.0159 9.37882L37.017 9.3357L37.0159 9.37882ZM30.9408 11.3932L31.0758 11.3224L30.9408 11.3932C30.8508 11.4385 30.7562 11.4861 30.655 11.5391C30.763 11.4894 30.8564 11.4429 30.9408 11.3932ZM31.2851 11.9349L31.7026 12.1273L31.2851 11.9349C31.0083 11.9603 30.9779 11.9018 31.0229 11.8166C30.9847 11.9062 31.015 11.9648 31.2907 11.9393L31.2851 11.9349ZM34.5697 10.3075L34.5742 10.3617C34.3334 10.438 34.0847 10.5087 33.8461 10.5894C34.0847 10.5087 34.3334 10.438 34.5742 10.3617L34.5697 10.3075L34.4583 10.3175L34.5697 10.3075ZM37.6607 9.27047C37.5144 9.26826 37.3771 9.29922 37.2466 9.36555L36.8426 9.66959L37.2477 9.36334C37.3782 9.29701 37.5155 9.26605 37.6618 9.26826C37.7034 9.26937 37.7439 9.276 37.7845 9.28816C37.7462 9.27379 37.7057 9.26495 37.6652 9.26273L37.6607 9.27047ZM17.1431 25.7127C17.0565 25.7248 16.9721 25.7149 16.89 25.6828C16.8618 25.6684 16.8348 25.6518 16.8089 25.6342C16.8348 25.6518 16.8618 25.6684 16.89 25.6828C16.9721 25.7149 17.0565 25.7248 17.1431 25.7127C17.2061 25.7016 17.2658 25.6828 17.3243 25.6574C17.2658 25.6828 17.2061 25.7016 17.1431 25.7127ZM26.1248 15.2638C26.1214 15.2483 26.1158 15.234 26.109 15.2196C26.1034 15.0836 26.046 14.9344 26.0404 14.7984C26.046 14.9344 26.1034 15.0836 26.109 15.2196C26.1158 15.234 26.1214 15.2483 26.1248 15.2638ZM37.9915 9.37329C38.05 9.41309 38.1108 9.44958 38.1738 9.48385C38.1108 9.44958 38.05 9.41309 37.9915 9.37329ZM38.2413 9.49601L38.203 9.47279L38.2413 9.49601ZM38.966 9.13449C39.173 9.26163 39.3947 9.2948 39.631 9.23509C39.7165 9.22072 39.8054 9.19972 39.8909 9.17982C39.8054 9.19972 39.7165 9.22072 39.631 9.23509C39.3947 9.2948 39.173 9.26163 38.966 9.13449L38.5766 9.28706L38.966 9.13449ZM38.5372 11.119C38.4573 11.1267 38.3775 11.1223 38.2987 11.1068C38.3775 11.1223 38.4573 11.1267 38.5372 11.119ZM42.4452 10.2743C42.5566 10.2191 42.6714 10.1616 42.776 10.1019C42.6714 10.1616 42.5566 10.2191 42.4452 10.2743ZM42.6455 10.5054H42.8536H42.6455C42.6027 10.5143 42.56 10.5198 42.5161 10.522C42.56 10.5198 42.6027 10.5143 42.6455 10.5054ZM43.3679 10.5629L43.3836 10.6126L43.3679 10.5629C43.2801 10.5474 43.1946 10.5386 43.0989 10.5242C43.1946 10.5386 43.2801 10.5474 43.3679 10.5629ZM74.6292 61.2703C74.6731 61.2327 74.7259 61.1852 74.7811 61.1354C74.7259 61.1852 74.6731 61.2327 74.6292 61.2703ZM22.6669 65.8375C22.8942 65.9226 23.1283 65.9845 23.3679 66.0232C23.1283 65.9845 22.8942 65.9226 22.6669 65.8375ZM23.8327 65.2725C23.3432 65.3123 22.8537 65.3267 22.362 65.3167C22.3597 65.2228 22.3406 65.1509 22.3676 65.1266C22.5206 64.9751 22.6185 64.7264 22.7941 64.6058C22.9696 64.4842 23.2329 64.4942 23.7258 64.8358C23.8124 64.8944 23.8867 65.2648 23.8327 65.2725ZM18.6926 60.1802C18.6723 60.2112 18.6329 60.2333 18.6048 60.2587C18.5452 60.3118 18.4878 60.3671 18.4248 60.4146C18.4878 60.3671 18.5452 60.3118 18.6048 60.2587C18.6239 60.2277 18.6622 60.2045 18.6926 60.1802C18.7511 60.1305 18.8164 60.0884 18.8873 60.0564C18.8164 60.0884 18.7511 60.1305 18.6926 60.1802ZM18.292 59.3621C18.337 59.3444 18.373 59.3168 18.4034 59.2792C18.3741 59.3123 18.3393 59.3378 18.2976 59.3543L18.292 59.3621ZM15.8682 54.4732C15.8817 54.628 15.9088 54.7817 15.9459 54.932C15.9099 54.7783 15.8851 54.6225 15.8739 54.4655L15.8682 54.4732ZM14.8544 54.8292L15.0041 54.9376L14.8544 54.8292ZM14.5765 52.2189C14.6924 52.5009 14.7306 52.8182 14.8308 53.1056C14.8758 53.2482 14.9444 53.3787 15.0356 53.497C14.9444 53.3787 14.8758 53.2482 14.8308 53.1056C14.7216 52.8126 14.6834 52.4964 14.5742 52.2167L14.5765 52.2189ZM12.9179 48.2167L12.9933 48.3162L12.9179 48.2167ZM12.6692 45.5445L12.6354 45.3665L12.6692 45.5445C12.703 45.5689 12.7311 45.5987 12.7547 45.6319C12.7311 45.5987 12.703 45.5689 12.6692 45.5445ZM17.5313 25.5358C17.4807 25.5722 17.4278 25.6043 17.3716 25.6319C17.4278 25.6043 17.4807 25.5722 17.5313 25.5358C17.6968 25.4108 17.852 25.2726 17.9949 25.1234C17.852 25.2726 17.6968 25.4108 17.5313 25.5358ZM22.8526 19.0969L22.9223 19.0361L22.8526 19.0969C22.7536 19.2074 22.6489 19.3136 22.5488 19.4219C22.6489 19.3136 22.7536 19.2074 22.8526 19.0969ZM37.4165 10.6104C37.5482 10.6027 37.6776 10.5861 37.8058 10.5585C37.6776 10.5861 37.5482 10.6027 37.4165 10.6104ZM44.5708 11.3689C44.8858 10.7542 45.4934 10.7508 46.1472 10.8327C45.4934 10.7508 44.8858 10.7542 44.5708 11.3689ZM44.9815 11.5435L44.8037 11.548L44.9815 11.5435ZM46.0088 10.6889C45.3314 10.6735 44.6585 10.669 43.9845 10.7033L43.7775 10.6934L43.9845 10.7033C44.6608 10.6646 45.3314 10.6735 46.0088 10.6889ZM47.2308 2.31417C47.0103 2.39045 46.7841 2.42251 46.5512 2.40925C46.433 2.41035 46.3194 2.41588 46.2102 2.42472C46.3194 2.41588 46.433 2.41035 46.5512 2.40925C46.7841 2.42251 47.0103 2.39045 47.2308 2.31417ZM53.3228 82.2166L53.3611 82.2255L53.3228 82.2166ZM75.7128 42.0863C75.7128 42.0863 75.7477 42.1272 75.7499 42.1482C75.7431 42.1891 75.7319 42.2278 75.7139 42.2654L75.6419 42.1758C75.6599 42.1416 75.6835 42.1117 75.7128 42.0863ZM71.9736 55.7468C71.9624 55.7336 71.9556 55.7192 71.9522 55.7015C71.9556 55.7192 71.9624 55.7336 71.9736 55.7468ZM71.9534 55.6993C71.9522 55.6816 71.9545 55.6639 71.9601 55.6462C71.9545 55.6639 71.9522 55.6816 71.9534 55.6993ZM43.6987 72.9773L43.6064 72.9939C43.4613 72.9718 43.3251 72.9961 43.1968 73.068C42.5881 73.1763 41.9625 73.2725 41.3548 73.3278L41.2221 73.2957C40.925 73.1818 40.5492 73.1155 40.269 72.9839C39.9888 72.8513 39.7649 72.6777 39.9157 72.3991C40.1486 71.9635 40.4175 72.0663 40.7258 72.2366C41.0353 72.4057 41.3515 72.6379 41.6418 72.5251C42.0941 73.4693 42.7738 72.587 43.3397 72.6534C43.6458 72.6921 43.9204 72.6335 44.0678 72.8214C44.2759 73.0912 43.8135 72.9519 43.6987 72.9773ZM20.8159 61.696C20.9172 61.7004 21.0106 61.7291 21.0961 61.7822C21.0106 61.7291 20.9172 61.7004 20.8159 61.696ZM19.6142 60.2311C19.4735 60.1161 19.3126 60.0464 19.1314 60.0199C19.3126 60.0464 19.4735 60.1161 19.6142 60.2311L19.6805 60.3494L19.6142 60.2311ZM14.1196 51.6595L14.3559 51.9724L14.1196 51.6595L13.8068 50.9608C13.8046 50.576 13.6763 50.2377 13.422 49.9459C13.6763 50.2377 13.8046 50.576 13.8068 50.9608L14.1196 51.6595ZM13.2003 49.2129C13.2881 49.1896 13.3713 49.1543 13.4501 49.1078C13.3713 49.1543 13.2881 49.1896 13.2003 49.2129ZM13.0383 48.8967C13.1002 48.8591 13.1688 48.8193 13.2633 48.7673C13.1688 48.8193 13.1002 48.8591 13.0383 48.8967ZM13.278 41.5147L12.9438 40.5506L13.278 41.5147ZM12.9899 39.5103C12.9629 39.6021 12.9561 39.6938 12.9719 39.7878C12.9561 39.6938 12.9629 39.6021 12.9899 39.5103ZM13.1767 38.4357C13.1733 38.5904 13.1384 38.7375 13.0709 38.8779C13.1384 38.7375 13.1733 38.5904 13.1767 38.4357ZM13.3308 36.8282C13.2746 36.9177 13.2273 37.0106 13.1902 37.1079C13.2273 37.0106 13.2746 36.9177 13.3308 36.8282ZM15.9324 28.6214C16.0573 28.638 16.1721 28.6104 16.2756 28.5418C16.1721 28.6071 16.0584 28.6325 15.9369 28.6159L15.9324 28.6214ZM16.4567 27.633L16.6469 27.6507L16.4567 27.633ZM24.968 17.4407C24.8127 17.4982 24.6721 17.5778 24.5449 17.6817C24.6721 17.5778 24.8127 17.4982 24.968 17.4407ZM23.6189 19.5524C23.9486 19.0272 24.339 18.9609 24.7025 19.1035C24.743 19.1278 24.7081 19.3147 24.6777 19.3301C24.2861 19.5247 23.89 19.8774 23.6155 19.5645L23.6189 19.5524ZM26.2632 17.7812C26.262 17.8122 26.2598 17.8431 26.2609 17.8697C26.262 17.8387 26.2643 17.8078 26.2654 17.7779L26.2632 17.7812ZM26.2722 17.9449C26.2778 17.9681 26.2868 17.9891 26.2992 18.0079C26.2868 17.988 26.2778 17.9659 26.2733 17.9426L26.2722 17.9449ZM30.0113 14.7398L30.6223 14.7597L30.0113 14.7398C29.9674 14.8094 29.9359 14.8879 29.8999 14.9598C29.9247 14.878 29.9697 14.8072 30.0113 14.7398ZM32.65 14.3241C32.794 14.25 32.9414 14.1815 33.0911 14.1195C33.1136 13.978 33.1417 13.831 33.1496 13.6917C33.1552 13.6242 33.1552 13.5579 33.1496 13.4905C33.1552 13.5579 33.1552 13.6242 33.1496 13.6917C33.1417 13.831 33.1136 13.978 33.0911 14.1195C32.9403 14.1837 32.7918 14.2522 32.65 14.3241ZM35.2155 12.6325C35.3011 12.5894 35.3933 12.5496 35.4822 12.5054C35.3945 12.5474 35.3022 12.5872 35.2155 12.6325L35.5295 12.972L35.2155 12.6325L34.9331 12.6945L35.2155 12.6325ZM40.0304 11.601C40 11.4783 40.0923 11.3678 40.521 11.2848C40.0867 11.3755 39.9944 11.4861 40.0304 11.601ZM40.8293 11.7271C40.79 11.6828 40.7517 11.6375 40.7168 11.59C40.7337 11.6375 40.7798 11.6895 40.8192 11.7326L40.8293 11.7271ZM43.1946 11.9106C43.7865 11.9006 44.3063 11.8222 44.5719 11.37C44.3063 11.8222 43.7797 11.8973 43.1946 11.9106C42.9054 11.9338 42.5948 11.9338 42.3135 11.9537C42.5948 11.9338 42.8919 11.9261 43.1946 11.9106ZM57.7113 13.276L57.7169 13.3136L57.7113 13.276ZM57.6629 12.9189C57.8317 12.9277 57.9813 12.9863 58.1107 13.0914C57.9802 12.9841 57.8294 12.9255 57.6595 12.9156L57.6629 12.9189ZM58.4123 13.3434L58.2772 13.2273L58.4123 13.3434ZM58.7217 13.5303C58.6666 13.5093 58.6137 13.4827 58.5642 13.4496C58.6114 13.4838 58.661 13.5115 58.7138 13.5347L58.7217 13.5303ZM58.9636 13.1168C59.1493 13.3578 59.5173 13.6331 59.4205 13.8244C59.5139 13.6397 59.1403 13.3611 58.9558 13.1201L58.9636 13.1168ZM57.4817 12.0698C57.5852 12.1815 57.7056 12.271 57.844 12.3374C57.7034 12.2732 57.5796 12.1848 57.4738 12.0731L57.4817 12.0698ZM55.3044 11.6519C55.454 11.6784 55.5981 11.7204 55.7387 11.7757C55.5958 11.7215 55.4484 11.6806 55.2965 11.6552L55.3044 11.6519ZM53.8551 10.2876L53.8427 10.3495L53.8551 10.2876ZM47.4784 9.4938C47.5493 9.61873 47.6415 9.72708 47.754 9.81884C47.6415 9.72708 47.5493 9.61873 47.4784 9.4938ZM46.5815 8.96976L45.3865 8.82161L46.5815 8.96976C46.7593 8.97418 46.9259 9.02061 47.08 9.10795C46.9259 9.02061 46.7593 8.97418 46.5815 8.96976ZM20.0114 6.95871C19.9101 7.01177 19.8099 7.06374 19.7177 7.10906C19.8077 7.06816 19.9067 7.0162 20.0114 6.95871ZM19.6648 7.13118C19.6412 7.14444 19.6164 7.1555 19.5916 7.16545C19.6153 7.1566 19.6389 7.14665 19.6625 7.1356L19.6648 7.13118ZM19.5241 7.19309C19.5028 7.19972 19.4791 7.20857 19.4589 7.21409C19.4386 7.21852 19.4994 7.20414 19.5275 7.20083L19.5241 7.19309ZM59.102 80.0685C59.5251 79.7291 60.0022 79.4958 60.5333 79.3676C60.7336 79.3045 60.9351 79.2459 61.1365 79.1807C60.9351 79.2459 60.7336 79.3045 60.5333 79.3676C60.0022 79.4958 59.5251 79.7291 59.102 80.0685C59.0132 80.1271 58.9209 80.1802 58.8264 80.2332C58.9164 80.1868 59.0087 80.1337 59.0975 80.0751L59.102 80.0685ZM80.2362 35.0835C80.5535 35.235 80.7752 35.4716 80.9024 35.7944C80.9609 35.9979 80.9867 36.2057 80.98 36.4169C80.9834 36.6579 80.962 36.9122 80.9575 37.1488C80.7201 36.8403 80.4523 36.5551 80.1361 36.1825C80.1608 35.9326 80.1777 35.6496 80.1968 35.4307C80.2171 35.2129 80.2137 35.0692 80.2362 35.0835ZM79.1189 28.8536C79.1031 28.8713 79.0907 28.8901 79.0817 28.9122C79.0907 28.8901 79.1031 28.8691 79.12 28.8514L79.1189 28.8536ZM75.7972 25.0416C75.733 25.0029 75.6891 24.9763 75.6565 24.9564C75.6363 24.9133 75.6284 24.868 75.6318 24.8205C75.6318 24.8205 75.6903 24.8381 75.7049 24.8647C75.7206 24.8923 75.7578 24.9542 75.7972 25.0416ZM73.4465 19.3633C73.5411 19.4551 73.5636 19.8111 73.6232 20.0654L72.8479 19.8641C72.8974 19.5424 72.7782 19.1544 72.444 18.6436C72.7973 18.857 73.1315 19.0969 73.4465 19.3633ZM66.0369 13.5004C65.3156 13.1997 66.6873 14.7951 65.4326 13.7536C64.6585 13.1466 65.0455 12.9299 65.6577 12.972L65.7544 13.0306C65.9412 13.2185 66.4206 13.6618 66.0369 13.5004ZM61.7452 12.1848C62.0839 12.3495 62.5441 12.5397 62.7129 12.7309C63.0933 13.119 63.5118 13.4628 63.9687 13.7613C64.1994 13.9161 64.439 14.0643 64.6888 14.198C64.9386 14.3318 65.1749 14.4921 65.418 14.6403C65.6622 14.7873 65.9041 14.9333 66.1336 15.0991C66.3643 15.2638 66.5792 15.4374 66.7874 15.6154C66.9922 15.7923 67.1835 15.9813 67.3635 16.1837C67.5301 16.3904 67.6741 16.6115 67.7967 16.8448C67.844 16.8747 67.8946 16.899 67.9486 16.9167C68.1782 17.004 68.3987 17.109 68.6103 17.2318C68.823 17.36 69.0244 17.5048 69.2224 17.6563C69.4193 17.8078 69.6095 17.9714 69.8143 18.1527C70.0191 18.3351 70.1834 18.5264 70.3668 18.7177L70.9114 19.3036L71.4358 19.9095C71.6034 20.1085 71.7958 20.3053 71.9714 20.501C72.148 20.6966 72.3146 20.8868 72.5115 21.0781C73.3622 21.8984 74.0699 22.9542 74.7856 24.0233C75.5012 25.0924 76.1685 26.2245 76.9539 27.2726C76.6355 25.7104 77.1643 26.69 77.4231 27.0239C77.9036 27.6574 77.4715 26.2367 78.0769 26.9597C78.2175 27.1212 78.3424 27.2936 78.4527 27.4761C78.5472 27.6452 78.6271 27.821 78.6924 28.0034C78.8263 28.355 78.9242 28.7021 79.0423 29.078C79.0525 29.0117 79.0705 28.9487 79.0975 28.8868C79.0705 28.9487 79.0525 29.0117 79.0423 29.078L79.2246 29.5999C78.8589 29.6894 78.5022 29.8011 78.1523 29.9371C78.0218 29.9968 77.8462 30.0941 78.0859 30.6225C79.3529 33.4948 80.2092 36.4821 80.6548 39.5833C80.6908 39.8442 80.7268 40.104 80.7516 40.3638C80.7336 40.3561 80.7156 40.3505 80.6976 40.3461C80.387 40.2731 80.0866 40.2344 80.1867 39.6363C80.504 37.6474 80.1293 35.9968 79.0322 34.8724C78.8556 34.6878 78.689 34.6878 78.6778 35.0084C78.6676 35.7624 78.6373 36.5429 78.5866 37.2892C78.5799 37.4727 78.4437 37.779 78.4021 37.7524C78.2029 37.6551 78.2614 37.3798 78.2963 37.151L78.3323 36.9542C78.3886 36.6944 78.392 36.4346 78.3402 36.1748C78.2896 35.9138 78.1894 35.6739 78.0386 35.4528C77.9205 35.2273 77.8428 34.9885 77.8068 34.7375C77.7663 34.4854 77.7472 34.2256 77.7056 33.9658C77.6347 33.4539 77.5795 32.931 77.2555 32.5241C77.3286 32.418 77.3624 32.2997 77.3545 32.1715C77.3477 32.0421 77.3016 31.9282 77.2161 31.8309L77.1688 31.6585C77.054 31.5435 76.928 31.4407 76.793 31.35C76.928 31.4407 77.054 31.5435 77.1688 31.6585C77.054 31.0913 76.7412 30.6015 76.4926 30.0974C76.4284 29.9725 76.362 29.8398 76.308 29.716C76.254 29.591 76.1786 29.4561 76.1359 29.3235C76.0256 29.0504 75.9547 28.7685 75.9243 28.4755C75.8557 28.3285 75.7893 28.1814 75.7105 28.0388C75.4945 27.5745 75.2931 27.1035 75.0691 26.6402L74.9724 26.3285C74.7518 25.7403 74.4052 25.235 73.9315 24.8149C73.4826 23.988 73.0043 23.1742 72.4878 22.3838C72.2144 21.9979 71.9365 21.6165 71.6428 21.245C71.348 20.8746 71.0003 20.5485 70.6537 20.2235C70.5254 20.0974 70.1687 19.873 70.3263 20.1262C70.5952 20.6027 70.8585 21.0958 71.1454 21.5656C71.3997 22.0554 71.6923 22.5208 72.0254 22.962C72.2977 23.3456 72.6341 23.6839 72.8637 24.0278C72.9796 24.1858 73.0527 24.3616 73.0831 24.5551C73.1112 24.7519 73.0786 24.9399 72.9852 25.1167C72.8806 25.3158 72.597 25.4374 72.768 25.7425C72.7984 25.8133 72.8412 25.8752 72.8963 25.9293C72.9526 25.9835 73.0167 26.0244 73.0887 26.0532C73.1619 26.0808 73.2373 26.0941 73.3149 26.0919C73.3937 26.0908 73.4679 26.0742 73.5399 26.0421C73.7256 26.0476 73.8719 26.125 73.9788 26.2743C74.1397 26.6214 74.2533 26.983 74.322 27.3589C74.3209 27.423 74.2938 27.4749 74.2421 27.5147C74.2117 27.5446 74.1791 27.5711 74.1431 27.5932C73.711 26.9631 73.7189 27.6496 73.7346 27.7458C73.7661 27.9006 73.8359 28.0377 73.9439 28.1549C74.0519 28.2721 74.1836 28.3528 74.3377 28.3981C74.4818 28.4578 74.6055 28.5463 74.7068 28.6623C74.7856 28.7641 74.8373 28.8768 74.8632 29.0018C74.9003 29.2571 74.9139 29.5136 74.9037 29.7712C74.9093 29.9216 74.8913 30.0521 74.879 30.2024C75.0027 30.2378 75.1153 30.2942 75.2177 30.3727C75.5991 30.6889 75.9311 31.0482 76.2124 31.4528C76.4408 31.8785 76.0267 31.7491 75.9659 31.9625C75.8579 32.282 75.7769 32.6071 75.7218 32.9398C75.697 33.3898 75.8253 33.7922 76.1089 34.146C76.3699 34.4854 76.8256 35.214 76.1516 35.4351C76.0897 35.7259 76.0391 36.0111 75.9693 36.2942L75.7465 37.1488C76.3485 37.5888 76.3429 38.1062 76.2281 38.6148C76.1145 39.1233 75.8602 39.6264 75.9322 40.1217C75.9311 40.2455 75.9142 40.3682 75.8816 40.4876C75.9221 40.5119 75.9941 40.5562 76.0098 40.5307C76.0751 40.4224 76.1235 40.3063 76.1539 40.1836C76.2225 39.9061 76.0323 39.3798 76.3249 39.3754C76.4329 39.3743 76.6175 39.9348 76.6445 40.2654C76.6568 40.4744 76.3823 40.6822 76.3181 40.9299C76.1899 41.3677 75.9153 41.6275 75.7026 41.9625C75.5586 42.1858 75.4596 42.4279 75.4067 42.6877C75.3549 42.9475 75.3516 43.2085 75.3977 43.4694C75.4585 44.2134 75.6486 45.267 75.4078 45.8176C75.1276 46.5716 74.9262 47.3444 74.8036 48.1382C74.6742 48.6081 74.5076 49.0658 74.3051 49.5114C74.0744 49.9669 73.9394 50.4478 73.9 50.9541C73.8809 51.1731 74.2117 51.9403 73.4848 51.9569C73.3723 51.9591 73.2553 51.9735 73.1394 51.9812C73.1259 52.0774 73.1011 52.1824 73.082 52.2831C73.0505 52.3704 73.0403 52.4599 73.0505 52.5517C73.1686 53.1786 72.6746 53.7247 72.4676 54.293C72.3663 54.5716 72.2347 54.8347 72.0715 55.0835C71.9106 55.34 71.7114 55.5766 71.5449 55.8286C71.3761 56.0752 71.2377 56.3361 71.1286 56.6136C71.0104 56.9011 70.9677 57.1996 71.0003 57.508C70.9722 57.7236 70.9035 57.927 70.7921 58.115C70.7167 58.2742 70.6155 58.4168 70.4894 58.5417C70.0765 58.5793 69.8244 59.0426 69.5195 59.4505C69.2134 59.8585 68.9051 60.2432 68.4741 60.1327C68.3751 60.1039 68.4831 60.3361 68.5225 60.429C68.6114 60.6357 68.805 60.785 68.6058 61.1675C68.2626 61.822 67.8485 61.5345 67.4625 61.8474C67.4153 61.885 67.2634 61.853 67.2701 61.8143C67.3061 61.5688 67.2893 61.3776 66.9584 61.6252C66.6828 61.8264 66.8549 62.0553 66.793 62.1592C66.5646 62.524 67.0125 62.5793 67.0867 62.7739C66.8999 62.8635 66.703 62.9209 66.496 62.9453C66.3373 62.9773 66.1832 63.0238 66.0335 63.0857C65.9108 63.1299 65.7949 63.1896 65.688 63.2637C65.508 63.3941 65.373 63.56 65.2818 63.7612C65.2267 63.8916 65.1783 64.0254 65.1367 64.1614C65.0658 64.1946 64.996 64.2266 64.9319 64.2598C64.672 64.3892 64.4807 64.513 64.5009 64.7838C64.5077 64.8778 64.5054 64.9729 64.493 65.0669C64.3501 65.1564 64.2252 65.2659 64.1195 65.3963C64.0508 65.4671 63.9844 65.5445 63.9181 65.6197C63.6773 65.7446 63.4578 65.8994 63.2609 66.084C62.9864 66.2322 62.7039 66.3692 62.4249 66.5074L62.273 66.7496L62.255 66.8048C61.9905 66.9806 61.7126 67.1376 61.4448 67.3035C61.366 67.351 61.2918 67.4041 61.2164 67.4538C61.1421 67.5025 61.0014 67.5821 60.8945 67.6495C60.6605 67.7954 60.4253 67.9546 60.1935 68.1105L59.488 68.5528C59.254 68.6987 59.0278 68.8491 58.787 68.9917C58.7397 69.0149 58.6947 69.0392 58.6486 69.0658L58.6339 68.9077C58.1861 69.1829 57.9307 69.5633 57.3501 69.6948C56.3418 69.9049 55.2999 69.9182 54.5088 70.7186C54.3974 70.807 54.2703 70.8535 54.1274 70.8601C53.1484 70.555 52.6139 70.9043 52.0153 71.5224C51.7925 71.7413 51.5247 71.8673 51.2119 71.8994C50.9193 71.9347 50.6335 71.9115 50.3522 71.8275C49.9055 71.6771 50.6313 71.5135 50.737 71.3355C50.7798 71.267 50.7956 71.1266 50.7697 71.1254C50.6121 71.0901 50.4546 71.0912 50.2971 71.1266C49.6849 71.3886 49.0638 71.6948 48.4123 71.3057C48.3763 71.2835 48.2548 71.3001 48.1884 71.3134C47.718 71.4295 47.2522 71.5699 46.7773 71.697C46.2969 71.8065 45.8119 71.8916 45.3213 71.9513C44.8082 71.9966 44.2939 72.0077 43.7797 71.9845C43.2745 71.9392 42.8188 71.7667 42.4126 71.4682C42.2775 71.3631 42.3057 71.1409 42.0018 71.1442C41.7858 71.1586 41.581 71.2139 41.3886 71.3112C40.7573 71.6075 40.2532 72.1647 39.1865 71.5135L38.966 71.2648C38.7454 70.9674 38.5361 70.9762 38.3212 71.1829L38.1794 71.1487C37.7878 70.8391 37.3287 71.1044 36.9383 70.9065L36.756 70.8336C36.4578 70.7164 36.1686 70.5826 35.8873 70.4311C35.6488 70.3018 35.3933 70.2255 35.121 70.2023C34.8476 70.1724 34.5584 70.1669 34.2929 70.1238C34.0194 70.0939 33.7606 70.0199 33.5142 69.9005C33.2441 69.7601 33.0551 69.5489 32.9459 69.2681L32.6117 69.2736C31.9962 69.2747 31.6463 68.7374 31.1096 68.576C30.835 68.4732 30.5436 68.4013 30.2668 68.293C29.9798 68.1824 29.7368 68.0121 29.5365 67.7822C29.2608 67.4383 28.9356 67.1487 28.5598 66.9121C28.1851 66.6755 27.7811 66.5052 27.3479 66.4024L26.8292 66.1802C26.154 65.7313 25.5273 65.2194 24.8904 64.7186C23.9036 63.9226 22.9651 63.0746 22.075 62.1736L21.6036 61.7236C21.455 61.5622 21.32 61.3908 21.1782 61.225C19.9292 59.8496 18.813 58.3781 17.8284 56.8093C16.6762 55.0979 15.9909 53.1587 15.0581 51.3444C14.9748 50.8425 14.4054 50.4721 14.5753 49.9016C14.8184 49.7292 14.671 49.5545 14.4853 49.3754L14.2682 49.3245C14.1939 49.2184 14.1106 49.1078 14.0532 49.0039C14.1174 49.1123 14.1939 49.2184 14.2682 49.3245L14.4853 49.3754L14.482 49.1797L14.4549 49.0404C14.3109 48.9906 14.3435 48.4146 14.0881 48.6921L13.8608 48.1681C13.8394 48.021 13.8169 47.874 13.8023 47.7303C13.7877 47.5866 13.7933 47.4373 13.7854 47.2914C13.7854 47.0227 13.8259 46.7596 13.9081 46.5031C13.8406 46.4544 13.7922 46.3914 13.7629 46.314C13.7382 46.24 13.7258 46.1637 13.728 46.0852C13.7258 46.1637 13.7382 46.24 13.7629 46.314C13.7922 46.3914 13.8406 46.4544 13.9081 46.5031C13.8518 46.2068 13.8361 45.9039 13.7956 45.6054L13.7708 45.4152C13.7202 45.1885 13.6538 44.9641 13.6088 44.7419L13.4816 44.0542C13.404 43.4638 13.602 42.8679 13.377 42.2798C13.3702 42.1084 13.3781 41.9381 13.3871 41.7646L13.296 41.0857L13.2622 40.6734L13.2498 40.2577C13.1317 40.1781 13.0439 40.073 12.9843 39.9448C13.0439 40.073 13.1317 40.1781 13.2498 40.2577L13.3646 39.1852L13.5064 38.1515C13.5446 37.8066 13.6189 37.4694 13.683 37.1278C13.7483 36.7872 13.7978 36.4467 13.8946 36.1051L13.7145 36.0764L13.6515 35.6164L13.7145 36.0764L13.8946 36.1051L14.0127 35.4141C14.0521 35.1819 14.0836 34.9509 14.15 34.7287L14.1939 34.3417C14.1905 34.1648 14.2198 33.9459 14.0127 34.0476C13.9677 34.0421 13.9317 34.0211 13.907 33.9835C13.9306 33.8331 13.9643 33.685 14.0094 33.5391C14.0352 33.4981 14.0431 33.444 14.0566 33.3986C14.4651 33.1532 14.5 32.3052 14.7543 32.2267C15.5959 32.0001 15.4227 31.5435 15.2707 30.9741L15.2269 30.7464L15.1526 30.439L15.1492 30.3837C15.2516 30.0908 15.372 29.8011 15.5014 29.5059C15.5318 29.4296 15.5689 29.3566 15.6049 29.2804C15.8559 29.1997 16.1102 29.1333 16.3701 29.0825C16.4601 29.0559 16.5434 29.0172 16.6222 28.9653C16.6998 28.9133 16.7684 28.8514 16.8269 28.7795C16.8866 28.7077 16.9327 28.6281 16.9665 28.5429C17.0014 28.4567 17.0216 28.3672 17.0284 28.2754C17.1476 27.7723 16.7245 28.3329 16.6525 28.188L16.6447 28.1261C16.7032 27.6662 16.8641 27.2428 17.1274 26.8569C17.3986 26.5087 17.7451 26.2666 18.1694 26.1295C18.4079 26.2942 18.7792 26.3462 18.4585 26.9642C18.4068 27.0471 18.5283 27.193 18.5654 27.3157C18.6206 27.1853 18.6735 27.0559 18.7353 26.9299C18.8692 26.6944 18.9514 26.4423 18.9806 26.1748C18.9784 25.9868 18.8535 25.8674 18.5013 25.8984C18.4653 25.8995 18.4675 25.5734 18.5204 25.5313C18.7939 25.2549 18.9896 24.9332 19.1067 24.5651C19.2451 24.1892 19.496 23.9095 19.8561 23.7248L19.9213 23.4296C20.1284 23.2671 20.3489 23.1389 20.5594 22.994L20.7934 22.784C21.0837 22.69 21.0972 22.4645 21.1591 22.2666C21.3661 22.104 21.5923 21.9537 21.3346 21.8144L21.4472 21.6353C21.5856 21.4805 21.7161 21.318 21.8489 21.1588C21.9828 21.0062 22.1268 20.8614 22.2776 20.7254C22.5859 20.4213 22.955 20.2367 23.3871 20.1715C23.782 20.1228 24.0656 20.4877 24.4065 20.1593C24.626 19.9261 24.806 19.6474 25.0187 19.4396C25.0715 19.3821 25.1323 19.3346 25.2009 19.2959C25.2696 19.2583 25.3427 19.2317 25.4204 19.2174C25.498 19.203 25.5757 19.2008 25.6533 19.2118C25.7321 19.2229 25.8063 19.245 25.8761 19.2793C25.9256 19.3091 26.2879 19.0394 26.3521 19.2019C26.4016 19.3191 26.2677 19.5336 26.2137 19.6939C26.1765 19.8033 25.9459 20.093 26.2148 19.967C26.6806 19.7691 27.421 19.4009 27.3276 19.0361C27.2342 18.6723 27.403 18.0543 26.6165 18.1339L26.3599 18.0388C26.6041 17.8277 26.8663 17.6408 27.1454 17.4761C27.4143 17.3003 27.6945 17.1433 27.9848 17.0062C28.5598 16.7365 29.1505 16.5054 29.7559 16.3119C29.8212 16.4744 29.6321 16.5761 29.4948 16.7287C29.3159 16.9222 29.1798 17.14 29.0841 17.3843C29.0695 17.4064 29.2135 17.4396 29.2811 17.4661C29.4217 17.2892 29.577 17.1245 29.73 16.9609C29.8819 16.7973 30.0316 16.6248 30.1745 16.4534C30.1981 16.4158 29.9888 16.3196 29.8864 16.25L29.8966 16.2334L30.2983 15.9614L30.1002 15.9559C29.8459 15.9758 29.5939 16.0079 29.3429 16.0532C29.5961 16.0057 29.8504 15.9703 30.107 15.9493L30.3061 15.9537C30.4198 15.9084 30.5424 15.8763 30.6696 15.8409L30.808 15.6629L30.6696 15.8409L31.6756 15.4308C32.0052 15.2915 32.3642 15.1864 32.6961 15.0571C33.0292 14.9277 33.3837 14.8293 33.7325 14.7265C34.0802 14.6237 34.4223 14.5021 34.779 14.4247C35.121 14.2555 35.57 14.4689 35.8671 14.135C36.4297 14.0411 36.9867 13.9261 37.5504 13.8443L38.3943 13.7348L38.8174 13.6795L39.2405 13.6486C39.3159 13.5104 39.4228 13.4064 39.5635 13.3335C39.7041 13.2605 39.8526 13.234 40.0102 13.2517C40.3039 13.2506 40.6279 13.3722 40.9205 13.3733C41.0341 13.14 41.1838 12.9333 41.3717 12.7519C41.4685 12.6602 41.5709 12.5762 41.6811 12.4999C41.5709 12.5762 41.4685 12.6602 41.3717 12.7519C41.1838 12.9333 41.0341 13.14 40.9205 13.3733C41.2513 13.2627 41.5607 13.1113 41.8499 12.9178C42.1931 12.7199 42.5633 12.6425 42.9594 12.6867C42.9605 12.6237 43.0055 12.5297 42.9504 12.4999C42.7557 12.3816 42.7569 12.25 42.9785 12.1859C43.1732 12.1383 43.3622 12.156 43.5434 12.2401C44.3288 13.171 45.6904 13.3246 47.1059 13.5889C47.2162 13.6265 47.3175 13.6795 47.4097 13.7503C47.2972 13.8022 47.1869 13.9029 47.0699 13.8984C46.8719 13.8929 46.6704 13.883 46.4713 13.8697L46.1708 13.8487L45.8783 13.8498C45.4754 13.8387 45.0726 13.8277 44.6776 13.8365C43.8877 13.8929 43.1271 14.0057 42.4846 14.4103C42.3428 14.4965 42.1526 14.5795 42.1087 14.6867C42.066 14.7928 42.1582 15.004 42.2393 15.0151C42.4801 15.0339 42.6984 14.9742 42.8953 14.8371C43.135 14.6745 43.3915 14.5419 43.6627 14.4391C43.8123 14.3805 43.9654 14.3683 44.1229 14.4004C44.2793 14.4335 44.4143 14.5065 44.5269 14.6193C44.9691 15.0515 45.3033 15.13 45.9469 15.0129C46.2721 14.9764 46.5939 14.9941 46.9124 15.0692C47.484 15.1875 47.8227 15.1886 48.0117 15.056C48.2008 14.9222 48.2323 14.6624 48.1805 14.3208C48.5575 14.5916 48.8208 14.3075 49.1696 14.3672L49.3102 14.6359C49.3327 14.7619 49.3744 14.8813 49.4363 14.993C49.497 15.1057 49.5747 15.2052 49.6692 15.2926C49.7637 15.381 49.8695 15.4507 49.9876 15.5048C50.1058 15.559 50.2284 15.5922 50.3578 15.6066C50.8473 15.7215 51.4459 15.6906 51.9861 15.7525L52.0986 15.7635C52.2741 16.0488 52.6522 16.0985 52.9763 16.2312L53.2103 16.2179C53.6053 16.302 53.989 16.4203 54.3614 16.5728C54.7316 16.7287 55.112 16.7597 55.5035 16.6657C55.454 16.8371 55.5486 16.9056 55.8141 16.9344C56.3688 16.983 56.9438 17.1124 57.4986 17.1975C57.8069 17.2373 58.383 17.5491 58.3346 17.192C58.2874 16.8349 57.6966 16.7508 57.2949 16.6491C57.2116 16.3484 56.9078 16.2036 56.5838 16.0996C56.2597 15.9957 55.9278 15.8907 55.7882 15.6187L55.4788 15.3103L55.3168 15.2318L54.8059 14.9233L53.8303 15.0659L54.7733 14.9056L54.8374 14.8039C55.1975 14.3915 55.7005 14.4634 56.2439 14.637C55.705 14.4545 55.1975 14.3915 54.8374 14.8039L54.7733 14.9056L55.2841 15.2152C55.7725 14.9355 56.2349 15.5634 56.7154 15.5867C56.8257 15.6541 56.9382 15.7215 57.0496 15.7901L57.5785 16.0377C57.6055 16.0543 57.6336 16.0665 57.664 16.0753C57.9622 16.2069 58.2626 16.3285 58.5529 16.4667C59.7738 17.1035 60.9508 17.8111 62.085 18.5883C62.3382 18.7619 62.696 19.0736 62.8603 18.9189C63.0235 18.7652 62.6949 18.4368 62.4327 18.2002C61.77 17.6121 61.087 17.0405 60.3736 16.4932C60.1676 16.3285 59.9538 16.1649 59.7401 16.0057C59.1729 15.5999 58.5912 15.213 57.9948 14.8393L57.5188 14.5518C57.4705 14.5828 57.4198 14.606 57.3647 14.6226C57.4198 14.606 57.4705 14.5828 57.5188 14.5518C57.3129 14.1394 56.6322 14.3252 56.3914 13.9493L56.3227 13.9084L56.5556 13.8454L57.6775 14.2622C58.0477 14.4147 58.419 14.564 58.7836 14.7276C59.515 15.0504 60.2385 15.3932 60.9463 15.7669L61.0577 15.6452L60.9463 15.7669C61.2726 15.9128 61.5652 16.041 61.3987 15.6386L61.4324 15.5833C61.8465 15.4462 62.8029 16.281 62.8727 15.6994C62.902 15.4286 62.5081 14.8448 61.7936 14.6226L61.6395 14.5087C62.1661 14.135 61.5359 13.9172 60.9396 13.5856C59.9775 13.0482 59.3293 12.1748 58.1692 11.8045L57.7821 11.6751L57.4873 11.8741L57.7821 11.6751L57.143 11.3523C56.9213 11.2384 56.7075 11.1544 56.4892 11.0538L56.4757 11.3655L56.7087 11.506L56.4757 11.3655L56.4892 11.0538L56.2012 10.9112C55.8681 10.6303 55.4833 10.4667 55.0478 10.4203C54.6124 10.3783 54.2039 10.2511 53.8236 10.0389C53.6874 9.99573 53.5434 9.96367 53.4027 9.9305L52.6499 9.73261L52.4395 9.67512C51.249 9.24173 50.0281 8.77296 48.7769 8.60823C48.1107 8.51868 47.448 8.44129 46.7908 8.32299C46.3149 8.26218 45.84 8.19364 45.3607 8.13062C45.9424 8.13725 46.514 8.15826 47.0778 8.15494C47.718 8.19696 48.3617 8.23565 48.9952 8.30641L49.2427 8.43797C49.2945 8.45677 49.3474 8.47224 49.4014 8.48551C49.6287 8.5828 49.8661 8.64472 50.1137 8.66904C50.521 8.64029 50.9283 8.63808 51.3368 8.66462C51.5483 8.67788 51.7565 8.70884 51.9636 8.75638C52.192 8.80502 52.408 8.88684 52.6106 9.00182C53.4016 9.42857 53.8708 9.49712 54.0362 9.06152L55.0321 9.34012C55.3629 9.43631 55.7038 9.5137 56.0223 9.62647L57.0091 9.95925L57.4952 10.1185L57.9813 10.3086C58.6103 10.6204 59.2427 10.9145 59.847 11.266C60.1733 11.3899 60.4782 11.5535 60.7618 11.7569C61.0521 11.9814 61.3806 12.124 61.7452 12.1848ZM59.7187 16.6801C59.8515 16.6922 59.982 16.6745 60.108 16.6281C59.9797 16.6745 59.847 16.69 59.7119 16.6768L59.7187 16.6801ZM60.1868 16.5905C60.2228 16.575 60.2577 16.5585 60.2925 16.5386C60.2509 16.554 60.2172 16.5706 60.1811 16.5861L60.1868 16.5905ZM73.0775 15.4308C72.7995 15.4871 72.6161 15.7005 71.9444 15.0836C71.8015 14.9598 71.6912 14.8127 71.6135 14.6425C71.6315 14.365 71.9601 14.4291 72.3742 14.6314C72.6071 14.8957 72.8524 15.1477 73.0718 15.4274L73.0775 15.4308ZM56.487 81.6616L56.5995 81.6285C56.6164 81.5234 56.6648 81.435 56.7469 81.3653C56.6648 81.435 56.6164 81.5234 56.5995 81.6285L56.487 81.6616ZM57.9048 80.9552L58.3706 80.8059L58.4798 80.6036C58.5822 80.5804 58.6733 80.5605 58.7555 80.5472C59.0357 80.4952 59.1909 80.4963 59.2618 80.5373C59.1921 80.4941 59.0357 80.4952 58.7555 80.5472C58.6733 80.5605 58.5822 80.5804 58.4798 80.6036L58.3729 80.807L57.9048 80.9552ZM63.7099 78.6965L64.1262 78.3725C64.2297 78.2078 64.2106 78.0386 64.259 77.8772C64.2703 77.8341 64.2883 77.7932 64.3119 77.7545C64.2883 77.7932 64.2703 77.8341 64.259 77.8772C64.2061 78.0442 64.2342 78.22 64.1262 78.3725L63.7099 78.6965ZM71.9736 73.4029C71.9511 73.4638 71.9444 73.5257 71.9534 73.5898C71.941 73.5246 71.9455 73.4615 71.9657 73.3985L71.9736 73.4029ZM77.2994 66.7131C76.6467 67.121 76.6951 66.7905 76.775 66.4301C76.6951 66.7905 76.6377 67.1155 77.2994 66.7131C77.386 66.7661 77.2048 67.0591 77.1913 67.2029C77.197 67.0547 77.3792 66.7595 77.2915 66.7087L77.2994 66.7131Z" fill="#F0CA41"/>
<path d="M18.0575 40.0837C16.8625 41.2302 16.2785 42.296 16.3066 43.333C16.3348 44.3712 16.9739 44.9173 18.2522 44.9173C19.1141 44.945 20.1707 44.3988 21.449 43.3054C22.6991 42.2131 23.839 40.9848 24.8956 39.6194C25.951 38.254 26.8962 36.861 27.7582 35.4403C29.5653 35.1407 30.9268 34.9494 31.8439 34.8676C31.9002 35.8228 32.0948 36.8886 32.3728 38.0627C32.6507 39.2369 33.0389 40.4663 33.5948 41.7499C34.1506 43.06 34.7628 44.2076 35.4852 45.2446C36.1805 46.2827 37.0414 47.102 38.0428 47.7023C39.0431 48.3037 40.1268 48.5492 41.2385 48.3855C41.4331 48.3855 41.5164 48.3314 41.5164 48.2761C41.5164 48.2219 41.4331 48.2219 41.2666 48.2219C40.0997 48.2761 38.988 47.6205 37.9314 46.2827C36.8467 44.9715 35.9578 43.2789 35.2905 41.2026C34.5962 39.1551 34.1506 37.0246 33.9571 34.7858C35.2354 34.8123 36.1805 35.0312 36.7634 35.468C37.3474 35.9047 37.5702 36.4508 37.4307 37.0522V37.27C37.4307 37.3253 37.4869 37.353 37.5421 37.353C37.5972 37.353 37.6816 37.2435 37.7367 37.0522C37.9033 36.369 37.6816 35.7687 37.0414 35.2502C36.4022 34.7582 35.3738 34.4851 33.929 34.4298C33.7062 31.563 33.8457 28.013 34.3734 23.8074C34.4016 23.479 34.235 23.2336 33.8727 23.07C33.5115 22.9052 33.1503 22.8511 32.761 22.8511C32.3727 22.8787 32.1781 22.9329 32.2051 22.9882C32.0104 24.4619 31.4827 26.3193 30.5938 28.6134C29.7037 30.9074 28.6752 33.0921 27.4521 35.1672C25.3952 35.6316 23.8952 36.0694 22.95 36.4785C22.8386 36.5337 22.8105 36.6155 22.8386 36.7239C22.8386 36.8886 22.9219 36.9428 23.0884 36.8886C23.7006 36.5061 25.0621 36.0417 27.1742 35.5498C26.0624 37.5431 24.5614 39.5376 22.6721 41.5586C20.7817 43.5796 19.2806 44.589 18.1689 44.5624C17.5016 44.5624 17.0572 44.3435 16.8344 43.9068C16.6127 43.4701 16.6397 42.9505 16.9176 42.296C17.1956 41.6669 17.6412 41.0666 18.2803 40.4928C18.5301 40.275 18.6134 40.1103 18.5301 40.0019C18.3917 39.9201 18.224 39.9467 18.0575 40.0837ZM28.0642 35.0312C29.8432 31.9179 31.2599 28.641 32.3165 25.1728C32.0667 26.128 31.872 27.384 31.7606 28.9406C31.6492 30.4973 31.6492 32.3546 31.7888 34.5393C30.8436 34.6211 29.6204 34.7858 28.0642 35.0312Z" fill="#2F2F2F"/>
<path d="M40.1509 36.9705C40.3455 37.0799 40.7067 37.2159 41.2626 37.4072C41.8185 37.6261 42.1797 37.7621 42.3743 37.8715C42.9302 38.1988 43.2363 38.5271 43.2633 38.8544C43.2633 39.1827 43.1519 39.646 42.8739 40.1932C42.4857 41.3397 42.1515 42.4862 41.8736 43.688C41.3177 45.8726 41.2345 46.9107 41.5957 46.7471C42.1797 46.474 43.764 43.7698 46.3768 38.6366H46.6829C43.9857 44.1523 42.2911 47.0202 41.6238 47.2656C41.4291 47.3209 41.2345 47.3209 41.0398 47.2115C40.4839 46.9384 40.1509 46.3646 40.0113 45.4912C39.8448 44.6443 39.8448 43.7974 39.9832 42.924C40.1227 42.0495 40.3455 41.2579 40.6505 40.5481C40.7067 40.3569 40.817 40.138 40.9284 39.8649C41.0398 39.5918 41.1231 39.4005 41.1793 39.2645C41.2345 39.1551 41.2896 38.9915 41.3459 38.7726C41.401 38.5813 41.4291 38.4453 41.4291 38.3635L41.401 38.0351C41.3459 37.8162 40.8733 37.5432 40.0395 37.2701L39.3441 38.7449H39.0391C39.2057 38.39 39.4555 37.8715 39.7615 37.1617C39.1224 36.9152 38.6498 36.5061 38.3719 35.9323C38.0939 35.3862 37.9825 34.8124 38.0658 34.2397C38.1491 33.6659 38.3989 33.2015 38.7882 32.819C39.3171 32.3005 39.7897 32.1092 40.1779 32.2187C40.5672 32.327 40.79 32.7372 40.9014 33.3928V34.1302C40.79 35.1673 40.5391 36.1236 40.1509 36.9705ZM39.8729 36.861C40.2611 35.9047 40.5121 34.9771 40.5672 34.1026C40.5953 33.7201 40.5953 33.3928 40.5391 33.1739C40.4558 32.8467 40.2611 32.7648 39.9832 32.9826C39.5387 33.2834 39.2057 33.8295 38.9829 34.5946C38.6498 35.7687 38.9277 36.5338 39.8729 36.861Z" fill="#2F2F2F"/>
<path d="M55.2137 38.6367C54.5464 39.9468 53.6012 41.3675 52.4343 42.8965C52.3229 42.3503 52.1845 41.4493 52.0731 40.2199C51.9336 38.9916 51.9066 38.1989 51.9617 37.8163C51.9617 37.708 51.8785 37.6262 51.7119 37.5433C51.5443 37.4891 51.3507 37.4614 51.1561 37.4614C50.9333 37.4614 50.8219 37.5167 50.7667 37.6262C50.7667 37.6804 50.7386 37.7898 50.7386 37.9811C50.7105 38.1723 50.6835 38.2807 50.6835 38.3083C50.5169 37.844 50.239 37.4614 49.8497 37.1342C49.4322 36.8335 48.9596 36.724 48.46 36.8335L48.2653 36.8888C47.1536 37.1884 46.4031 38.0629 46.0689 39.5377C45.7077 40.9297 45.791 42.1591 46.3198 43.2237C46.8475 44.3713 47.6532 44.7262 48.7379 44.316C49.1824 44.1524 49.5717 43.6615 49.9611 42.8423C50.3223 42.0231 50.6002 41.1486 50.7667 40.1657C50.7949 40.8213 50.9884 42.1867 51.3507 44.2342C50.7667 44.9451 49.4885 46.0916 47.5418 47.6759C45.5693 49.2591 44.2629 50.4343 43.5956 51.1983C42.817 52.0728 42.2611 52.892 41.928 53.6836C41.5938 54.5029 41.4554 55.1861 41.5106 55.7588C41.5668 56.3326 41.7885 56.7969 42.1778 57.1795C42.5672 57.562 43.0397 57.8351 43.6508 57.9445C44.2629 58.0805 44.9572 58.0529 45.791 57.8892C46.6248 57.7256 47.4586 57.3984 48.3486 56.9064C49.7383 56.1413 50.8219 55.1043 51.6005 53.7654C52.3511 52.4277 52.7955 51.007 52.9351 49.5056C53.0735 48.0308 52.9351 45.9822 52.5176 43.3885C52.9621 42.8147 53.5179 42.0231 54.1571 41.0126C54.7692 40.0286 55.2418 39.237 55.5197 38.6367H55.2137ZM51.4059 44.6444C51.7671 46.9385 51.5443 49.0955 50.7105 51.1165C49.8767 53.1651 48.8212 54.7483 47.5418 55.8682C46.0419 57.1795 44.7355 57.7256 43.5675 57.5067C42.6785 57.3707 42.1497 56.8511 42.0113 55.9777C41.7615 54.6665 42.4276 53.1098 43.9849 51.3354C44.6522 50.5703 45.9023 49.4504 47.7365 47.9755C49.5717 46.5018 50.7949 45.4095 51.4059 44.6444ZM50.6002 39.237C50.6002 39.9468 50.4055 40.8755 49.9881 42.0772C49.5436 43.279 49.071 43.8793 48.5703 43.9346C48.3205 43.9612 48.0977 43.7975 47.9311 43.415C47.7646 43.0325 47.6532 42.5692 47.5981 41.9954C47.5418 41.4216 47.5418 40.8213 47.5981 40.2199C47.6532 39.6195 47.7646 39.0457 47.9874 38.4996C48.2091 37.9811 48.487 37.6262 48.8212 37.4073C49.1824 37.1884 49.5436 37.2436 49.8767 37.5709C50.2109 37.8993 50.4325 38.4454 50.6002 39.237Z" fill="#2F2F2F"/>
<path d="M56.2412 37.6528C55.6853 37.9812 55.2679 38.4455 54.9899 39.0182C54.712 39.6196 54.5736 40.22 54.6017 40.8756C54.6017 41.8043 54.8234 42.5693 55.296 43.1696C55.7405 43.77 56.2963 44.126 56.9085 44.2343C57.5195 44.3438 58.1867 44.1525 58.854 43.6064C59.5213 43.0878 60.0209 42.2686 60.4102 41.1486C61.8561 41.0127 62.9397 40.1658 63.7184 38.6368H63.4123C62.5785 40.0563 61.6052 40.7938 60.4935 40.8214C60.9942 38.8004 60.7444 37.3256 59.6878 36.451C58.9654 35.8784 58.2149 35.7413 57.4081 36.0143C56.6305 36.2874 56.2412 36.8336 56.2412 37.6528ZM60.1041 41.121C59.9939 41.4494 59.8543 41.7224 59.7429 41.9679C59.0205 43.3886 58.2149 43.9612 57.3529 43.6882C56.7138 43.5245 56.2693 43.006 56.0465 42.1315C55.7135 41.0392 55.9351 40.0563 56.6575 39.2371C56.7138 39.4284 56.8522 39.6462 57.0469 39.8651C57.2145 40.1105 57.6027 40.3836 58.1586 40.6843C58.7145 40.985 59.3547 41.121 60.1041 41.121ZM60.1885 40.8214C59.5213 40.8479 58.854 40.7119 58.1867 40.3836C57.5195 40.0563 57.1031 39.592 56.9355 38.9917C57.3248 38.7728 57.659 38.6909 57.9088 38.6909C58.1316 38.6909 58.3263 38.7451 58.4647 38.8004C58.4928 38.8004 58.5198 38.6909 58.5479 38.5273C58.5761 38.3637 58.5761 38.1448 58.5479 37.8994C58.4928 37.6528 58.4095 37.4615 58.27 37.2979C58.1586 37.2437 57.9088 37.2161 57.5195 37.2437C57.1031 37.2979 56.7971 37.3532 56.6024 37.4615C56.6575 36.9154 56.9085 36.5605 57.4081 36.3969C58.0753 36.178 58.7145 36.3692 59.3547 36.9154C60.2988 37.7899 60.5767 39.1 60.1885 40.8214Z" fill="#2F2F2F"/>
<path d="M71.3873 38.6371C71.0543 39.3193 70.5535 40.0843 69.8863 40.9036C69.2201 41.7504 68.6913 42.3508 68.2749 42.678C67.9407 42.0235 67.2465 41.0672 66.2461 39.756C65.2177 38.4459 64.6055 37.599 64.4109 37.2165C65.023 35.9605 65.4675 34.6493 65.6903 33.2839C65.8005 32.6559 65.7735 32.164 65.6059 31.8367C65.3561 31.3182 64.9116 31.2087 64.2725 31.536C63.5219 31.9185 62.9931 32.6007 62.6881 33.5846C62.1323 35.2773 62.5216 37.2706 63.9113 39.5647C64.2162 40.1109 64.7169 40.8759 65.4393 41.8864C66.1347 42.9246 66.5511 43.5802 66.7176 43.8798C66.6906 43.9074 66.5241 44.0169 66.2461 44.2347C65.9682 44.4536 65.6903 44.699 65.4123 44.9179C65.1333 45.1634 64.8002 45.4364 64.439 45.7648C64.0778 46.0921 63.7436 46.4469 63.4387 46.8018C63.1045 47.1844 62.8547 47.5127 62.6881 47.84C62.076 48.9046 62.049 49.7515 62.6049 50.4071C63.1045 51.0627 63.9113 51.2805 65.023 51.0627C66.3845 50.7897 67.4681 49.9428 68.3019 48.5221C68.7194 47.7858 68.9422 46.9389 68.9973 45.9826C69.0255 45.0539 68.8308 44.0434 68.4133 43.0064C68.8589 42.6238 69.3867 41.9959 70.0539 41.1766C70.7212 40.3574 71.2771 39.5105 71.7215 38.6371H71.3873ZM66.8571 44.2081C67.4681 45.4917 67.5244 46.9113 66.9685 48.4403C66.5511 49.5326 65.9119 50.27 65.023 50.5984C64.1892 50.9256 63.5219 50.8162 62.9931 50.3253C62.3539 49.7792 62.3539 48.9599 62.9931 47.9218C63.3824 47.2662 63.9664 46.584 64.8002 45.8466C65.634 45.1092 66.3013 44.563 66.8571 44.2081ZM64.2162 36.9434C63.6333 36.0147 63.4938 34.8947 63.7999 33.5846C63.855 33.2563 63.9664 32.9832 64.1059 32.7101C64.4109 32.0545 64.7169 31.7549 65.05 31.7549C65.4393 31.7549 65.5507 32.2734 65.3842 33.3116C65.1614 34.4857 64.7721 35.6874 64.2162 36.9434Z" fill="#2F2F2F"/>
<path d="M16.7806 76.5225V76.7027C16.7806 77.4379 16.7806 77.9188 16.8875 78.3986C17.1013 79.0144 17.6358 79.3295 18.0949 79.3605C18.1714 79.3749 18.2176 79.3605 18.3548 79.3605H18.6755C18.9962 79.3605 19.3169 79.3605 19.6691 79.2853C20.0663 79.1648 20.3724 78.9547 20.6469 78.6242C20.8461 78.3688 20.9676 77.8282 21.0138 77.2732C21.0441 76.8973 21.0599 76.5368 21.0599 76.2671C21.0599 76.2217 21.0599 76.162 21.0599 76.0869L21.0745 75.8459C21.1207 75.2002 21.1364 74.7204 21.1364 74.4948V74.2549C21.1364 73.8337 21.106 73.4888 21.0599 73.2334C20.8303 72.4672 20.6773 71.9122 19.9898 71.5219C19.5465 71.2964 18.8432 71.2367 18.2929 71.2367H17.9723V70.245C17.9723 70.1554 17.9576 70.0349 17.9576 69.9144V69.7497C17.9576 69.4943 17.9576 69.2389 17.9723 68.8641L17.988 68.5932C17.988 68.5335 17.9419 68.4285 17.9115 68.3832L17.8507 68.3235C17.6673 68.2185 17.4378 68.1875 17.3455 68.1875C16.8718 68.1875 16.811 68.5181 16.811 68.9691V69.3296C16.811 69.3738 16.8268 69.4191 16.8268 69.4644C16.8268 69.6447 16.8268 70.0504 16.8414 70.3058C16.8414 70.4705 16.8571 70.6054 16.8571 70.7403V71.2367C16.8571 71.3417 16.8571 71.4014 16.8268 71.4313C16.7649 72.0626 16.7502 72.6474 16.7502 73.1438C16.7502 73.3682 16.7502 73.5639 16.7649 73.7585V73.7441C16.7806 74.0449 16.7953 74.4794 16.7953 75.0952C16.7953 75.4854 16.7953 75.9509 16.7806 76.5225ZM17.8957 74.0139C17.8957 73.5042 17.8957 72.8884 17.9272 72.4528C18.1557 72.392 18.3695 72.3622 18.6148 72.3622C18.6755 72.3622 18.752 72.3622 18.8589 72.3776C19.1954 72.423 19.4396 72.5579 19.5622 72.7524C19.7603 73.0686 19.8671 73.6236 19.8829 74.3146C19.8829 74.6596 19.8671 75.4854 19.8368 76.3268C19.8064 77.2422 19.6995 77.7088 19.6387 77.8436V77.8282C19.5161 78.0382 19.3788 78.099 19.1954 78.1742C18.9197 78.2041 18.6598 78.2184 18.4313 78.2184C18.2176 78.2184 18.0791 78.1432 18.0026 77.9487C17.9723 77.7685 17.9723 77.5882 17.9723 77.4677C17.9723 76.9724 17.9723 76.3423 17.9576 75.9962L17.9115 74.7502C17.9115 74.6596 17.8957 74.5844 17.8957 74.5247V74.0139Z" fill="#2F2F2F"/>
<path d="M26.2096 76.9434L26.1331 76.928C25.8282 76.9434 25.6144 77.1237 25.476 77.4841L25.4613 77.5294V77.5139C25.4309 77.5593 25.4152 77.6787 25.4152 77.7693C25.4152 77.7992 25.4006 77.9197 25.3691 77.9495C25.2925 78.0999 25.1091 78.1596 24.8953 78.1596C23.7498 78.1596 23.3526 77.619 23.3526 76.583C23.3526 76.478 23.3369 76.373 23.3369 76.2823V76.0269C23.3211 75.8777 23.3211 75.7572 23.3211 75.6223V75.337C23.6733 75.2917 24.1167 75.2917 24.8807 75.2917H25.0641L25.1856 75.3061C25.2171 75.3061 25.2622 75.3061 25.2925 75.3216C25.324 75.3216 25.3544 75.337 25.4006 75.337C25.476 75.3514 25.6144 75.3669 25.6909 75.3669C26.0577 75.3669 26.3019 75.2011 26.4853 74.9014L26.4999 74.7809C26.3019 71.8677 25.9654 71.1016 24.2236 71.1016C22.7709 71.1016 22.0991 71.8976 22.0991 74.4802C22.0991 75.5769 22.1295 77.619 22.5267 78.1751C22.9543 79.0452 23.9017 79.3304 24.6669 79.3304H24.7434C25.7516 79.2552 26.5922 79.0308 26.5922 77.6344C26.5922 77.274 26.4999 77.064 26.2096 76.9434ZM23.6576 72.4681C23.7341 72.3332 23.9333 72.3033 24.2236 72.258H24.3305C24.56 72.258 24.7434 72.3188 24.8807 72.3785H24.865C25.0337 72.4681 25.1091 72.7688 25.1406 73.2187C25.171 73.4598 25.1856 73.745 25.2014 74.2105H24.4677C24.1167 74.195 23.8106 74.195 23.5507 74.195H23.3211C23.3065 74.0457 23.3065 73.9097 23.3065 73.7152C23.3065 73.2641 23.3673 72.8594 23.6576 72.4681Z" fill="#2F2F2F"/>
<path d="M35.8827 76.9434L35.8062 76.928C35.5012 76.9434 35.2875 77.1237 35.149 77.4841L35.1344 77.5294V77.5139C35.104 77.5593 35.0883 77.6787 35.0883 77.7693C35.0883 77.7992 35.0737 77.9197 35.0422 77.9495C34.9656 78.0999 34.7822 78.1596 34.5684 78.1596C33.4229 78.1596 33.0257 77.619 33.0257 76.583C33.0257 76.478 33.01 76.373 33.01 76.2823V76.0269C32.9942 75.8777 32.9942 75.7572 32.9942 75.6223V75.337C33.3464 75.2917 33.7898 75.2917 34.5538 75.2917H34.7372L34.8587 75.3061C34.8902 75.3061 34.9353 75.3061 34.9656 75.3216C34.9971 75.3216 35.0275 75.337 35.0737 75.337C35.149 75.3514 35.2875 75.3669 35.364 75.3669C35.7308 75.3669 35.975 75.2011 36.1584 74.9014L36.173 74.7809C35.975 71.8677 35.6385 71.1016 33.8967 71.1016C32.444 71.1016 31.7722 71.8976 31.7722 74.4802C31.7722 75.5769 31.8026 77.619 32.1998 78.1751C32.6274 79.0452 33.5748 79.3304 34.34 79.3304H34.4165C35.4247 79.2552 36.2653 79.0308 36.2653 77.6344C36.2653 77.274 36.173 77.064 35.8827 76.9434ZM33.3307 72.4681C33.4072 72.3332 33.6064 72.3033 33.8967 72.258H34.0036C34.2331 72.258 34.4165 72.3188 34.5538 72.3785H34.538C34.7068 72.4681 34.7822 72.7688 34.8137 73.2187C34.8441 73.4598 34.8587 73.745 34.8745 74.2105H34.1408C33.7898 74.195 33.4837 74.195 33.2238 74.195H32.9942C32.9796 74.0457 32.9796 73.9097 32.9796 73.7152C32.9796 73.2641 33.0404 72.8594 33.3307 72.4681Z" fill="#2F2F2F"/>
<path d="M40.1476 72.4527C40.0868 72.7976 40.0103 73.1735 39.9338 73.5041C39.873 73.7584 39.8415 73.9839 39.7965 74.2094C39.6581 74.9303 39.4747 75.6655 39.2913 76.4018L39.2159 76.1619H39.2305L39.0775 75.7263C38.9244 75.2299 38.7725 74.7644 38.6499 74.2846L38.2223 72.8275V72.8429L38.1154 72.467L37.977 72.1221L37.8093 71.6412V71.6567C37.7328 71.2962 37.5033 71.2808 37.2748 71.2808H37.1218C36.8011 71.3858 36.6785 71.5516 36.6785 71.807C36.6785 71.8667 36.6785 71.9264 36.7088 72.0171L36.6942 72.0016C36.7696 72.4527 36.8765 72.7832 36.9992 73.0983C36.9992 73.1127 37.0295 73.2332 37.0453 73.2631L37.1983 73.7584C37.2748 73.9994 37.3817 74.2548 37.4583 74.4947L37.6102 74.9004C37.8251 75.5162 38.0231 76.1464 38.2065 76.8076C38.3292 77.242 38.4665 77.7385 38.543 78.1741L38.5734 78.3233C38.6195 78.6085 38.849 79.1945 39.307 79.2995L39.4139 79.315C39.8876 79.315 39.9799 78.7744 40.0407 78.3388L40.0564 78.2338C40.0564 78.2039 40.0564 78.1586 40.0711 78.1132C40.1014 77.933 40.178 77.6025 40.2545 77.2575L40.3917 76.5964C40.3917 76.582 40.4233 76.4471 40.4536 76.3565L41.5541 71.8523C41.5541 71.807 41.5687 71.7772 41.5687 71.7617C41.5687 71.5063 41.2942 71.2962 40.9116 71.2962C40.6821 71.2962 40.5605 71.3714 40.484 71.4764C40.2848 71.807 40.2398 72.0016 40.1476 72.4527Z" fill="#2F2F2F"/>
<path d="M45.4343 71.1768C43.4471 71.1768 41.9033 73.4299 41.9033 74.991V75.4111C42.0867 77.7837 43.203 79.0009 45.4186 79.3614H45.6942C48.2463 79.3614 48.8877 77.3337 48.8877 75.5173C48.8877 74.991 48.8426 74.5853 48.7358 74.2403H48.72C48.3385 72.7533 47.1762 71.1768 45.4343 71.1768ZM46.8555 77.8589C46.6259 78.0844 46.1983 78.1441 45.6481 78.1441C45.557 78.1441 45.4647 78.1441 45.3735 78.1297H45.3882C43.7993 77.8589 43.0499 76.7179 43.0499 75.4421C43.0499 74.9158 43.1107 74.3608 43.3706 73.8655V73.8799C43.8905 72.9037 44.6095 72.3033 45.4343 72.3033C45.8158 72.3033 46.1826 72.4537 46.5494 72.7688L46.9928 73.1889C47.4361 73.8047 47.696 74.6306 47.696 75.3813V75.5615C47.6353 76.5676 47.4215 77.3636 46.8555 77.8589Z" fill="#2F2F2F"/>
<path d="M52.0355 78.3551C51.5314 78.1749 51.2107 77.7835 51.2107 75.8023V74.6459C51.2107 74.0002 51.2264 72.6039 51.2264 68.6691C51.2264 68.2191 50.8596 68.0986 50.6762 68.0986C50.279 68.0986 50.019 68.3839 50.019 68.8648C50.019 69.2396 50.0337 69.8255 50.0494 70.2755C50.0641 70.9068 50.0798 71.6122 50.0798 72.5431V75.9217C50.0956 77.0638 50.1102 78.7155 51.1803 79.255L51.5775 79.4352C51.6686 79.4507 51.7001 79.4662 51.807 79.4662C51.9905 79.4662 52.1435 79.3755 52.265 79.2252L52.3877 78.9399C52.3877 78.8802 52.3573 78.7752 52.3269 78.7299L52.0355 78.3551Z" fill="#2F2F2F"/>
<path d="M55.8107 72.4527C55.7499 72.7976 55.6734 73.1735 55.5969 73.5041C55.5361 73.7584 55.5046 73.9839 55.4596 74.2094C55.3212 74.9303 55.1378 75.6655 54.9544 76.4018L54.879 76.1619H54.8936L54.7406 75.7263C54.5875 75.2299 54.4356 74.7644 54.313 74.2846L53.8854 72.8275V72.8429L53.7785 72.467L53.6401 72.1221L53.4724 71.6412V71.6567C53.3959 71.2962 53.1664 71.2808 52.9379 71.2808H52.7849C52.4642 71.3858 52.3416 71.5516 52.3416 71.807C52.3416 71.8667 52.3416 71.9264 52.3719 72.0171L52.3573 72.0016C52.4327 72.4527 52.5396 72.7832 52.6622 73.0983C52.6622 73.1127 52.6926 73.2332 52.7084 73.2631L52.8614 73.7584C52.9379 73.9994 53.0448 74.2548 53.1213 74.4947L53.2732 74.9004C53.4882 75.5162 53.6862 76.1464 53.8696 76.8076C53.9923 77.242 54.1296 77.7385 54.2061 78.1741L54.2364 78.3233C54.2826 78.6085 54.5121 79.1945 54.9701 79.2995L55.077 79.315C55.5507 79.315 55.643 78.7744 55.7038 78.3388L55.7195 78.2338C55.7195 78.2039 55.7195 78.1586 55.7341 78.1132C55.7645 77.933 55.841 77.6025 55.9176 77.2575L56.0548 76.5964C56.0548 76.582 56.0863 76.4471 56.1167 76.3565L57.2172 71.8523C57.2172 71.807 57.2318 71.7772 57.2318 71.7617C57.2318 71.5063 56.9573 71.2962 56.5747 71.2962C56.3451 71.2962 56.2236 71.3714 56.1471 71.4764C55.9479 71.807 55.9029 72.0016 55.8107 72.4527Z" fill="#2F2F2F"/>
<path d="M58.8823 70.6065C59.2491 70.6065 59.356 70.2914 59.356 69.8713C59.356 69.5407 59.2942 69.1947 59.2638 69.0299C59.1726 68.6397 58.8823 68.3091 58.5459 68.3091C58.1487 68.3091 58.0564 68.9846 58.0564 69.481C58.0564 70.5766 58.5301 70.6065 58.8823 70.6065ZM58.1633 75.9221V78.6849C58.1937 79.1205 58.4997 79.2411 58.6989 79.2411C59.1107 79.2411 59.3707 78.9403 59.3707 78.4749C59.3707 78.1443 59.3707 77.6346 59.356 77.3041C59.3403 76.7181 59.3245 76.0271 59.3245 74.811V72.6485C59.3245 72.3334 59.3403 72.0028 59.3403 71.6734C59.3403 71.2068 58.9735 71.0874 58.7901 71.0874C58.3928 71.0874 58.1329 71.4025 58.1329 71.8536C58.1329 72.0636 58.1329 73.3251 58.1487 74.1653C58.1487 74.8265 58.1633 75.4721 58.1633 75.9221Z" fill="#2F2F2F"/>
<path d="M65.4839 73.2932C65.4839 72.6785 65.4839 72.0925 65.072 71.6868C64.6895 71.312 64.1235 71.1616 63.5586 71.1616C63.2379 71.1616 62.9161 71.2058 62.7023 71.2667C61.9079 71.4922 61.2811 71.867 61.19 72.7227C61.1135 73.3838 61.0831 74.0748 61.0831 74.7503V77.7531C61.0831 78.1887 61.0673 78.9095 61.4949 79.1196C61.6176 79.1948 61.7402 79.2102 61.801 79.2102C62.3051 79.2102 62.3051 78.579 62.3051 78.024V77.4081C62.3051 76.6575 62.3051 75.8017 62.2905 75.0953C62.2747 74.6453 62.259 74.1942 62.259 73.7586C62.259 73.5342 62.2747 73.3385 62.3051 73.113C62.3051 73.0831 62.3208 73.0389 62.3208 72.9936C62.367 72.6475 63.0084 72.3623 63.436 72.2727C63.9401 72.2871 64.2157 72.5281 64.2923 73.0687C64.353 73.5043 64.353 73.9698 64.353 74.4352V75.3507C64.3384 75.6514 64.3384 75.951 64.3384 76.2362V77.6779C64.3384 78.3689 64.3834 79.1649 64.9955 79.1649C65.5604 79.1649 65.5604 78.8045 65.5604 78.2639V77.9941C65.5604 77.5585 65.53 77.1229 65.4996 76.8222C65.4839 76.7028 65.4839 76.642 65.4839 76.5823V73.2932Z" fill="#2F2F2F"/>
<path d="M67.9596 78.6695C68.3421 79.1349 68.9993 79.3605 69.5641 79.3605C70.0536 79.3605 70.4655 79.1946 70.8177 78.9691C70.8177 79.4655 70.8323 79.7651 70.848 80.246C70.8638 80.6363 70.8784 80.9812 70.8784 81.2223C70.8784 82.0326 70.6342 82.5733 70.5735 82.633C70.4351 82.7988 70.1144 82.8585 69.8083 82.8585C68.5706 82.8585 68.5559 82.0028 68.5256 81.2974C68.5098 80.6363 68.4794 80.0658 67.7458 80.0658C67.4397 80.246 67.3182 80.4108 67.2867 80.6816C67.3632 82.3477 67.4251 82.5887 67.7919 83.1437C68.1891 83.7452 69.1512 83.9995 69.7779 83.9995C71.0157 83.9995 72.0397 83.5196 72.0397 81.1614C72.0397 80.7568 72.025 80.4108 72.0093 80.1111C71.9947 79.8856 71.9947 79.6899 71.9947 79.5097C71.9789 79.2399 71.9947 79.0443 71.9947 78.8795C71.9947 78.7745 72.0093 78.654 72.0093 78.5644L72.025 77.5285V77.3328C72.025 76.9724 72.0093 76.6418 71.9947 76.2969C71.9947 75.9508 71.9789 75.6214 71.9789 75.2908L71.9947 73.2179C71.9947 72.7524 71.7651 72.0017 71.3983 71.6866L71.1687 71.4766C70.7715 71.2665 70.3282 71.146 69.8241 71.146C68.7697 71.146 67.5466 71.7773 67.272 72.738C67.1494 73.1582 67.1348 73.5783 67.1348 74.0139V74.675C67.1348 74.8851 67.1494 75.0509 67.1494 75.2455V75.4257C67.1494 75.5606 67.1348 75.7408 67.1348 75.921C67.1348 76.7623 67.2417 78.0238 67.9596 78.6695ZM68.3872 74.57C68.3872 74.3301 68.4029 74.1499 68.4175 73.9387V73.4589C68.4175 72.7834 68.8462 72.2726 69.7937 72.2726C70.8019 72.2726 70.8638 73.083 70.8638 74.0592C70.8638 74.4793 70.8638 74.8707 70.848 75.2156C70.848 75.5164 70.8323 75.8016 70.8323 76.0868C70.8323 76.2217 70.8019 76.3721 70.7873 76.4915C70.7715 76.5821 70.7715 76.7026 70.7715 76.7922C70.7715 77.5429 70.2517 78.2482 69.5495 78.2482C68.9993 78.2482 68.6009 77.7231 68.449 77.3627C68.3568 77.1681 68.3421 76.8077 68.3568 76.3422L68.3872 74.57Z" fill="#2F2F2F"/>
</svg>
